<?xml version="1.0" encoding="UTF-8" standalone="no"?>
<!DOCTYPE svg PUBLIC "-//W3C//DTD SVG 1.1//EN"
 "http://www.w3.org/Graphics/SVG/1.1/DTD/svg11.dtd">
<!-- Generated by graphviz version 2.26.3 (20100126.1600)
 -->
<!-- Title: modules Pages: 1 -->
<svg width="1698pt" height="113pt"
 viewBox="0.00 0.00 1698.00 113.00" xmlns="http://www.w3.org/2000/svg" xmlns:xlink="http://www.w3.org/1999/xlink">
<g id="graph1" class="graph" transform="scale(1 1) rotate(0) translate(4 109)">
<title>modules</title>
<polygon fill="white" stroke="white" points="-4,5 -4,-109 1695,-109 1695,5 -4,5"/>
<g id="graph2" class="cluster"><title>clusterdir_a4a48839224ef8488facbffa8a397967</title>
<a xlink:href="dir_a4a48839224ef8488facbffa8a397967.html" target="_top" xlink:title="postgres">
<polygon fill="#ddddee" stroke="black" points="8,-8 8,-97 1682,-97 1682,-8 8,-8"/>
<text text-anchor="middle" x="845" y="-84" font-family="FreeSans.ttf" font-size="10.00">postgres</text>
</a>
</g>
<g id="graph3" class="cluster"><title>clusterdir_dc596537ad427a4d866006d1a3e1fe29</title>
<a xlink:href="dir_dc596537ad427a4d866006d1a3e1fe29.html" target="_top">
<polygon fill="#eeeeff" stroke="black" points="16,-16 16,-68 1674,-68 1674,-16 16,-16"/>
</a>
</g>
<!-- dir_dc596537ad427a4d866006d1a3e1fe29 -->
<g id="node3" class="node"><title>dir_dc596537ad427a4d866006d1a3e1fe29</title>
<text text-anchor="middle" x="1637" y="-39.5" font-family="FreeSans.ttf" font-size="10.00">modules</text>
</g>
<!-- dir_df86748cb94fb6c2fa09e991cce090c0 -->
<g id="node4" class="node"><title>dir_df86748cb94fb6c2fa09e991cce090c0</title>
<a xlink:href="dir_df86748cb94fb6c2fa09e991cce090c0.html" target="_top" xlink:title="assoc_rules">
<polygon fill="white" stroke="black" points="1590,-60 1516,-60 1516,-24 1590,-24 1590,-60"/>
<text text-anchor="middle" x="1553" y="-39.5" font-family="FreeSans.ttf" font-size="10.00">assoc_rules</text>
</a>
</g>
<!-- dir_3ee26ceeadb429f807bd6cd822eca1b9 -->
<g id="node5" class="node"><title>dir_3ee26ceeadb429f807bd6cd822eca1b9</title>
<a xlink:href="dir_3ee26ceeadb429f807bd6cd822eca1b9.html" target="_top" xlink:title="bayes">
<polygon fill="white" stroke="black" points="1498,-60 1444,-60 1444,-24 1498,-24 1498,-60"/>
<text text-anchor="middle" x="1471" y="-39.5" font-family="FreeSans.ttf" font-size="10.00">bayes</text>
</a>
</g>
<!-- dir_7668ab45ab1521840e6e151e43539dd4 -->
<g id="node6" class="node"><title>dir_7668ab45ab1521840e6e151e43539dd4</title>
<a xlink:href="dir_7668ab45ab1521840e6e151e43539dd4.html" target="_top" xlink:title="compatibility">
<polygon fill="white" stroke="black" points="1426,-60 1350,-60 1350,-24 1426,-24 1426,-60"/>
<text text-anchor="middle" x="1388" y="-39.5" font-family="FreeSans.ttf" font-size="10.00">compatibility</text>
</a>
</g>
<!-- dir_42e4eb27424bda9fbbfa95509de09bad -->
<g id="node7" class="node"><title>dir_42e4eb27424bda9fbbfa95509de09bad</title>
<a xlink:href="dir_42e4eb27424bda9fbbfa95509de09bad.html" target="_top" xlink:title="conjugate_gradient">
<polygon fill="white" stroke="black" points="1332,-60 1224,-60 1224,-24 1332,-24 1332,-60"/>
<text text-anchor="middle" x="1278" y="-39.5" font-family="FreeSans.ttf" font-size="10.00">conjugate_gradient</text>
</a>
</g>
<!-- dir_93c42bb4df0f3e1302223b6dfd48c81e -->
<g id="node8" class="node"><title>dir_93c42bb4df0f3e1302223b6dfd48c81e</title>
<a xlink:href="dir_93c42bb4df0f3e1302223b6dfd48c81e.html" target="_top" xlink:title="convex">
<polygon fill="white" stroke="black" points="1206,-60 1152,-60 1152,-24 1206,-24 1206,-60"/>
<text text-anchor="middle" x="1179" y="-39.5" font-family="FreeSans.ttf" font-size="10.00">convex</text>
</a>
</g>
<!-- dir_70e9abe17564e15776adcab8550c7667 -->
<g id="node9" class="node"><title>dir_70e9abe17564e15776adcab8550c7667</title>
<a xlink:href="dir_70e9abe17564e15776adcab8550c7667.html" target="_top" xlink:title="crf">
<polygon fill="white" stroke="black" points="1134,-60 1080,-60 1080,-24 1134,-24 1134,-60"/>
<text text-anchor="middle" x="1107" y="-39.5" font-family="FreeSans.ttf" font-size="10.00">crf</text>
</a>
</g>
<!-- dir_b39ff06c8d4b923dddf798443565aaed -->
<g id="node10" class="node"><title>dir_b39ff06c8d4b923dddf798443565aaed</title>
<a xlink:href="dir_b39ff06c8d4b923dddf798443565aaed.html" target="_top" xlink:title="data_profile">
<polygon fill="white" stroke="black" points="1062,-60 990,-60 990,-24 1062,-24 1062,-60"/>
<text text-anchor="middle" x="1026" y="-39.5" font-family="FreeSans.ttf" font-size="10.00">data_profile</text>
</a>
</g>
<!-- dir_d662e943e8adcb86abe4b822d2348c9e -->
<g id="node11" class="node"><title>dir_d662e943e8adcb86abe4b822d2348c9e</title>
<a xlink:href="dir_d662e943e8adcb86abe4b822d2348c9e.html" target="_top" xlink:title="elastic_net">
<polygon fill="white" stroke="black" points="972,-60 904,-60 904,-24 972,-24 972,-60"/>
<text text-anchor="middle" x="938" y="-39.5" font-family="FreeSans.ttf" font-size="10.00">elastic_net</text>
</a>
</g>
<!-- dir_73ccba3aa44ce35463f879b4ebbd3f46 -->
<g id="node12" class="node"><title>dir_73ccba3aa44ce35463f879b4ebbd3f46</title>
<a xlink:href="dir_73ccba3aa44ce35463f879b4ebbd3f46.html" target="_top" xlink:title="kmeans">
<polygon fill="white" stroke="black" points="886,-60 832,-60 832,-24 886,-24 886,-60"/>
<text text-anchor="middle" x="859" y="-39.5" font-family="FreeSans.ttf" font-size="10.00">kmeans</text>
</a>
</g>
<!-- dir_6ff79b0655deb26abf8f86290b84a97c -->
<g id="node13" class="node"><title>dir_6ff79b0655deb26abf8f86290b84a97c</title>
<a xlink:href="dir_6ff79b0655deb26abf8f86290b84a97c.html" target="_top" xlink:title="lda">
<polygon fill="white" stroke="black" points="814,-60 760,-60 760,-24 814,-24 814,-60"/>
<text text-anchor="middle" x="787" y="-39.5" font-family="FreeSans.ttf" font-size="10.00">lda</text>
</a>
</g>
<!-- dir_9e42ee0a0235722f482630aa6cc99334 -->
<g id="node14" class="node"><title>dir_9e42ee0a0235722f482630aa6cc99334</title>
<a xlink:href="dir_9e42ee0a0235722f482630aa6cc99334.html" target="_top" xlink:title="linalg">
<polygon fill="white" stroke="black" points="742,-60 688,-60 688,-24 742,-24 742,-60"/>
<text text-anchor="middle" x="715" y="-39.5" font-family="FreeSans.ttf" font-size="10.00">linalg</text>
</a>
</g>
<!-- dir_8b8525adb4e4d2ae68fa3d70bbeff8da -->
<g id="node15" class="node"><title>dir_8b8525adb4e4d2ae68fa3d70bbeff8da</title>
<a xlink:href="dir_8b8525adb4e4d2ae68fa3d70bbeff8da.html" target="_top" xlink:title="prob">
<polygon fill="white" stroke="black" points="670,-60 616,-60 616,-24 670,-24 670,-60"/>
<text text-anchor="middle" x="643" y="-39.5" font-family="FreeSans.ttf" font-size="10.00">prob</text>
</a>
</g>
<!-- dir_68045f897311dcb3907add5fe80793a8 -->
<g id="node16" class="node"><title>dir_68045f897311dcb3907add5fe80793a8</title>
<a xlink:href="dir_68045f897311dcb3907add5fe80793a8.html" target="_top" xlink:title="quantile">
<polygon fill="white" stroke="black" points="598,-60 544,-60 544,-24 598,-24 598,-60"/>
<text text-anchor="middle" x="571" y="-39.5" font-family="FreeSans.ttf" font-size="10.00">quantile</text>
</a>
</g>
<!-- dir_ac52a4b89b7b1b1591f2952b5cbd041a -->
<g id="node17" class="node"><title>dir_ac52a4b89b7b1b1591f2952b5cbd041a</title>
<a xlink:href="dir_ac52a4b89b7b1b1591f2952b5cbd041a.html" target="_top" xlink:title="regress">
<polygon fill="white" stroke="black" points="526,-60 472,-60 472,-24 526,-24 526,-60"/>
<text text-anchor="middle" x="499" y="-39.5" font-family="FreeSans.ttf" font-size="10.00">regress</text>
</a>
</g>
<!-- dir_e6c126a997181663ba81c11cbf416bb1 -->
<g id="node18" class="node"><title>dir_e6c126a997181663ba81c11cbf416bb1</title>
<a xlink:href="dir_e6c126a997181663ba81c11cbf416bb1.html" target="_top" xlink:title="sample">
<polygon fill="white" stroke="black" points="454,-60 400,-60 400,-24 454,-24 454,-60"/>
<text text-anchor="middle" x="427" y="-39.5" font-family="FreeSans.ttf" font-size="10.00">sample</text>
</a>
</g>
<!-- dir_505cd743a8a717435eca324f49291a46 -->
<g id="node19" class="node"><title>dir_505cd743a8a717435eca324f49291a46</title>
<a xlink:href="dir_505cd743a8a717435eca324f49291a46.html" target="_top" xlink:title="stats">
<polygon fill="white" stroke="black" points="382,-60 328,-60 328,-24 382,-24 382,-60"/>
<text text-anchor="middle" x="355" y="-39.5" font-family="FreeSans.ttf" font-size="10.00">stats</text>
</a>
</g>
<!-- dir_5ff04c1d4b766f0a4dd68c6f19ed2092 -->
<g id="node20" class="node"><title>dir_5ff04c1d4b766f0a4dd68c6f19ed2092</title>
<a xlink:href="dir_5ff04c1d4b766f0a4dd68c6f19ed2092.html" target="_top" xlink:title="summary">
<polygon fill="white" stroke="black" points="310,-60 248,-60 248,-24 310,-24 310,-60"/>
<text text-anchor="middle" x="279" y="-39.5" font-family="FreeSans.ttf" font-size="10.00">summary</text>
</a>
</g>
<!-- dir_40c4a35ef279220d890883d91e88ed32 -->
<g id="node21" class="node"><title>dir_40c4a35ef279220d890883d91e88ed32</title>
<a xlink:href="dir_40c4a35ef279220d890883d91e88ed32.html" target="_top" xlink:title="svd_mf">
<polygon fill="white" stroke="black" points="230,-60 176,-60 176,-24 230,-24 230,-60"/>
<text text-anchor="middle" x="203" y="-39.5" font-family="FreeSans.ttf" font-size="10.00">svd_mf</text>
</a>
</g>
<!-- dir_8d53e1c0026e7e34b4cd68f8b91426d6 -->
<g id="node22" class="node"><title>dir_8d53e1c0026e7e34b4cd68f8b91426d6</title>
<a xlink:href="dir_8d53e1c0026e7e34b4cd68f8b91426d6.html" target="_top" xlink:title="utilities">
<polygon fill="white" stroke="black" points="158,-60 104,-60 104,-24 158,-24 158,-60"/>
<text text-anchor="middle" x="131" y="-39.5" font-family="FreeSans.ttf" font-size="10.00">utilities</text>
</a>
</g>
<!-- dir_9f5e6edf0db58b0627c46b41dbbbb27f -->
<g id="node23" class="node"><title>dir_9f5e6edf0db58b0627c46b41dbbbb27f</title>
<a xlink:href="dir_9f5e6edf0db58b0627c46b41dbbbb27f.html" target="_top" xlink:title="validation">
<polygon fill="white" stroke="black" points="86,-60 24,-60 24,-24 86,-24 86,-60"/>
<text text-anchor="middle" x="55" y="-39.5" font-family="FreeSans.ttf" font-size="10.00">validation</text>
</a>
</g>
</g>
</svg>
