<?xml version="1.0" encoding="UTF-8" standalone="no"?>
<!DOCTYPE svg PUBLIC "-//W3C//DTD SVG 1.1//EN"
 "http://www.w3.org/Graphics/SVG/1.1/DTD/svg11.dtd">
<!-- Generated by graphviz version 2.26.3 (20100126.1600)
 -->
<!-- Title: Cox&#45;Proportional Hazards Regression Pages: 1 -->
<svg width="292pt" height="42pt"
 viewBox="0.00 0.00 292.00 42.00" xmlns="http://www.w3.org/2000/svg" xmlns:xlink="http://www.w3.org/1999/xlink">
<g id="graph1" class="graph" transform="scale(1 1) rotate(0) translate(4 38)">
<title>Cox&#45;Proportional Hazards Regression</title>
<polygon fill="white" stroke="white" points="-4,5 -4,-38 289,-38 289,5 -4,5"/>
<!-- Node0 -->
<g id="node1" class="node"><title>Node0</title>
<polygon fill="#bfbfbf" stroke="black" points="144.5,-0 144.5,-34 283.5,-34 283.5,-0 144.5,-0"/>
<text text-anchor="start" x="152.5" y="-21" font-family="FreeSans.ttf" font-size="10.00">Cox&#45;Proportional Hazards</text>
<text text-anchor="middle" x="214" y="-8" font-family="FreeSans.ttf" font-size="10.00"> Regression</text>
</g>
<!-- Node1 -->
<g id="node2" class="node"><title>Node1</title>
<a xlink:href="group__grp__glm.html" target="_top" xlink:title="Generalized Linear\l Models">
<polygon fill="white" stroke="black" points="0.5,-0 0.5,-34 107.5,-34 107.5,-0 0.5,-0"/>
<text text-anchor="start" x="8.5" y="-21" font-family="FreeSans.ttf" font-size="10.00">Generalized Linear</text>
<text text-anchor="middle" x="54" y="-8" font-family="FreeSans.ttf" font-size="10.00"> Models</text>
</a>
</g>
<!-- Node1&#45;&gt;Node0 -->
<g id="edge2" class="edge"><title>Node1&#45;&gt;Node0</title>
<path fill="none" stroke="midnightblue" d="M117.779,-17C126.471,-17 135.431,-17 144.223,-17"/>
<polygon fill="midnightblue" stroke="midnightblue" points="117.723,-13.5001 107.723,-17 117.723,-20.5001 117.723,-13.5001"/>
</g>
</g>
</svg>
