<?xml version="1.0" encoding="UTF-8" standalone="no"?>
<!DOCTYPE svg PUBLIC "-//W3C//DTD SVG 1.1//EN"
 "http://www.w3.org/Graphics/SVG/1.1/DTD/svg11.dtd">
<!-- Generated by graphviz version 2.26.3 (20100126.1600)
 -->
<!-- Title: structs Pages: 1 -->
<svg width="474pt" height="470pt"
 viewBox="0.00 0.00 474.00 470.00" xmlns="http://www.w3.org/2000/svg" xmlns:xlink="http://www.w3.org/1999/xlink">
<g id="graph1" class="graph" transform="scale(1 1) rotate(0) translate(4 466)">
<title>structs</title>
<polygon fill="white" stroke="white" points="-4,5 -4,-466 471,-466 471,5 -4,5"/>
<!-- Node5 -->
<g id="node1" class="node"><title>Node5</title>
<a xlink:href="group__grp__mlogreg.html" target="_top" xlink:title="Multinomial Logistic Regression">
<polygon fill="white" stroke="black" points="285.5,-440.5 285.5,-461.5 450.5,-461.5 450.5,-440.5 285.5,-440.5"/>
<text text-anchor="middle" x="368" y="-448.5" font-family="FreeSans.ttf" font-size="10.00">Multinomial Logistic Regression</text>
</a>
</g>
<!-- Node12 -->
<g id="node2" class="node"><title>Node12</title>
<a xlink:href="group__grp__cox__prop__hazards.html" target="_top" xlink:title="Cox&#45;Proportional Hazards Regression">
<polygon fill="white" stroke="black" points="270.5,-400.5 270.5,-421.5 465.5,-421.5 465.5,-400.5 270.5,-400.5"/>
<text text-anchor="middle" x="368" y="-408.5" font-family="FreeSans.ttf" font-size="10.00">Cox&#45;Proportional Hazards Regression</text>
</a>
</g>
<!-- Node9 -->
<g id="node3" class="node"><title>Node9</title>
<a xlink:href="group__grp__rf.html" target="_top" xlink:title="Random Forest">
<polygon fill="white" stroke="black" points="323.5,-360.5 323.5,-381.5 412.5,-381.5 412.5,-360.5 323.5,-360.5"/>
<text text-anchor="middle" x="368" y="-368.5" font-family="FreeSans.ttf" font-size="10.00">Random Forest</text>
</a>
</g>
<!-- Node1 -->
<g id="node4" class="node"><title>Node1</title>
<a xlink:href="group__grp__modeling.html" target="_top" xlink:title="Data Modeling">
<polygon fill="white" stroke="black" points="0,-220.5 0,-241.5 84,-241.5 84,-220.5 0,-220.5"/>
<text text-anchor="middle" x="42" y="-228.5" font-family="FreeSans.ttf" font-size="10.00">Data Modeling</text>
</a>
</g>
<!-- Node0 -->
<g id="node13" class="node"><title>Node0</title>
<polygon fill="#bfbfbf" stroke="black" points="120,-220.5 120,-241.5 234,-241.5 234,-220.5 120,-220.5"/>
<text text-anchor="middle" x="177" y="-228.5" font-family="FreeSans.ttf" font-size="10.00">Supervised Learning</text>
</g>
<!-- Node1&#45;&gt;Node0 -->
<g id="edge2" class="edge"><title>Node1&#45;&gt;Node0</title>
<path fill="none" stroke="midnightblue" d="M94.372,-231C102.757,-231 111.47,-231 119.957,-231"/>
<polygon fill="midnightblue" stroke="midnightblue" points="94.3445,-227.5 84.3444,-231 94.3444,-234.5 94.3445,-227.5"/>
</g>
<!-- Node11 -->
<g id="node5" class="node"><title>Node11</title>
<a xlink:href="group__grp__kernmach.html" target="_top" xlink:title="Support Vector Machines">
<polygon fill="white" stroke="black" points="300.5,-320.5 300.5,-341.5 435.5,-341.5 435.5,-320.5 300.5,-320.5"/>
<text text-anchor="middle" x="368" y="-328.5" font-family="FreeSans.ttf" font-size="10.00">Support Vector Machines</text>
</a>
</g>
<!-- Node8 -->
<g id="node6" class="node"><title>Node8</title>
<a xlink:href="group__grp__dectree.html" target="_top" xlink:title="Decision Tree">
<polygon fill="white" stroke="black" points="327,-280.5 327,-301.5 409,-301.5 409,-280.5 327,-280.5"/>
<text text-anchor="middle" x="368" y="-288.5" font-family="FreeSans.ttf" font-size="10.00">Decision Tree</text>
</a>
</g>
<!-- Node2 -->
<g id="node7" class="node"><title>Node2</title>
<a xlink:href="group__grp__bayes.html" target="_top" xlink:title="Naive Bayes Classification">
<polygon fill="white" stroke="black" points="296.5,-240.5 296.5,-261.5 439.5,-261.5 439.5,-240.5 296.5,-240.5"/>
<text text-anchor="middle" x="368" y="-248.5" font-family="FreeSans.ttf" font-size="10.00">Naive Bayes Classification</text>
</a>
</g>
<!-- Node4 -->
<g id="node8" class="node"><title>Node4</title>
<a xlink:href="group__grp__logreg.html" target="_top" xlink:title="Logistic Regression">
<polygon fill="white" stroke="black" points="313.5,-200.5 313.5,-221.5 422.5,-221.5 422.5,-200.5 313.5,-200.5"/>
<text text-anchor="middle" x="368" y="-208.5" font-family="FreeSans.ttf" font-size="10.00">Logistic Regression</text>
</a>
</g>
<!-- Node7 -->
<g id="node9" class="node"><title>Node7</title>
<a xlink:href="group__grp__elasticnet.html" target="_top" xlink:title="Elastic Net Regularization">
<polygon fill="white" stroke="black" points="299.5,-160.5 299.5,-181.5 436.5,-181.5 436.5,-160.5 299.5,-160.5"/>
<text text-anchor="middle" x="368" y="-168.5" font-family="FreeSans.ttf" font-size="10.00">Elastic Net Regularization</text>
</a>
</g>
<!-- Node6 -->
<g id="node10" class="node"><title>Node6</title>
<a xlink:href="group__grp__validation.html" target="_top" xlink:title="Cross Validation">
<polygon fill="white" stroke="black" points="321.5,-120.5 321.5,-141.5 414.5,-141.5 414.5,-120.5 321.5,-120.5"/>
<text text-anchor="middle" x="368" y="-128.5" font-family="FreeSans.ttf" font-size="10.00">Cross Validation</text>
</a>
</g>
<!-- Node3 -->
<g id="node11" class="node"><title>Node3</title>
<a xlink:href="group__grp__linreg.html" target="_top" xlink:title="Linear Regression">
<polygon fill="white" stroke="black" points="317,-80.5 317,-101.5 419,-101.5 419,-80.5 317,-80.5"/>
<text text-anchor="middle" x="368" y="-88.5" font-family="FreeSans.ttf" font-size="10.00">Linear Regression</text>
</a>
</g>
<!-- Node10 -->
<g id="node12" class="node"><title>Node10</title>
<a xlink:href="group__grp__linear__svm.html" target="_top" xlink:title="Linear Support Vector Machines">
<polygon fill="white" stroke="black" points="284.5,-40.5 284.5,-61.5 451.5,-61.5 451.5,-40.5 284.5,-40.5"/>
<text text-anchor="middle" x="368" y="-48.5" font-family="FreeSans.ttf" font-size="10.00">Linear Support Vector Machines</text>
</a>
</g>
<!-- Node0&#45;&gt;Node5 -->
<g id="edge10" class="edge"><title>Node0&#45;&gt;Node5</title>
<path fill="none" stroke="midnightblue" d="M180.33,-251.702C188.086,-292.798 211.365,-384.696 270,-431 274.77,-434.767 280.067,-437.877 285.658,-440.441"/>
<polygon fill="midnightblue" stroke="midnightblue" points="183.759,-250.993 178.572,-241.754 176.865,-252.21 183.759,-250.993"/>
</g>
<!-- Node0&#45;&gt;Node12 -->
<g id="edge24" class="edge"><title>Node0&#45;&gt;Node12</title>
<path fill="none" stroke="midnightblue" d="M182.869,-251.585C193.87,-286.225 221.019,-355.825 270,-391 275.219,-394.748 280.976,-397.83 287.007,-400.361"/>
<polygon fill="midnightblue" stroke="midnightblue" points="186.109,-250.208 179.857,-241.654 179.41,-252.24 186.109,-250.208"/>
</g>
<!-- Node0&#45;&gt;Node9 -->
<g id="edge18" class="edge"><title>Node0&#45;&gt;Node9</title>
<path fill="none" stroke="midnightblue" d="M186.514,-250.674C200.72,-277.818 230.133,-326.205 270,-351 285.777,-360.813 305.486,-365.917 323.084,-368.534"/>
<polygon fill="midnightblue" stroke="midnightblue" points="189.619,-249.057 181.978,-241.718 183.374,-252.22 189.619,-249.057"/>
</g>
<!-- Node0&#45;&gt;Node11 -->
<g id="edge22" class="edge"><title>Node0&#45;&gt;Node11</title>
<path fill="none" stroke="midnightblue" d="M192.871,-249.286C209.999,-267.801 239.017,-295.809 270,-311 279.433,-315.625 289.881,-319.181 300.337,-321.915"/>
<polygon fill="midnightblue" stroke="midnightblue" points="195.378,-246.84 186.079,-241.762 190.182,-251.53 195.378,-246.84"/>
</g>
<!-- Node0&#45;&gt;Node8 -->
<g id="edge16" class="edge"><title>Node0&#45;&gt;Node8</title>
<path fill="none" stroke="midnightblue" d="M207.649,-246.069C225.498,-254.364 248.632,-264.302 270,-271 288.392,-276.765 309.259,-281.291 326.997,-284.568"/>
<polygon fill="midnightblue" stroke="midnightblue" points="208.857,-242.769 198.321,-241.661 205.867,-249.098 208.857,-242.769"/>
</g>
<!-- Node0&#45;&gt;Node2 -->
<g id="edge4" class="edge"><title>Node0&#45;&gt;Node2</title>
<path fill="none" stroke="midnightblue" d="M244.345,-238.052C261.182,-239.815 279.302,-241.712 296.341,-243.496"/>
<polygon fill="midnightblue" stroke="midnightblue" points="244.358,-234.534 234.048,-236.974 243.629,-241.496 244.358,-234.534"/>
</g>
<!-- Node0&#45;&gt;Node4 -->
<g id="edge8" class="edge"><title>Node0&#45;&gt;Node4</title>
<path fill="none" stroke="midnightblue" d="M244.237,-223.959C266.815,-221.595 291.708,-218.989 313.213,-216.737"/>
<polygon fill="midnightblue" stroke="midnightblue" points="243.629,-220.504 234.048,-225.026 244.358,-227.466 243.629,-220.504"/>
</g>
<!-- Node0&#45;&gt;Node7 -->
<g id="edge14" class="edge"><title>Node0&#45;&gt;Node7</title>
<path fill="none" stroke="midnightblue" d="M207.649,-215.931C225.498,-207.636 248.632,-197.698 270,-191 281.682,-187.338 294.362,-184.177 306.604,-181.517"/>
<polygon fill="midnightblue" stroke="midnightblue" points="205.867,-212.902 198.321,-220.339 208.857,-219.231 205.867,-212.902"/>
</g>
<!-- Node0&#45;&gt;Node6 -->
<g id="edge12" class="edge"><title>Node0&#45;&gt;Node6</title>
<path fill="none" stroke="midnightblue" d="M192.871,-212.714C209.999,-194.199 239.017,-166.191 270,-151 285.747,-143.279 304.323,-138.537 321.045,-135.626"/>
<polygon fill="midnightblue" stroke="midnightblue" points="190.182,-210.47 186.079,-220.238 195.378,-215.16 190.182,-210.47"/>
</g>
<!-- Node0&#45;&gt;Node3 -->
<g id="edge6" class="edge"><title>Node0&#45;&gt;Node3</title>
<path fill="none" stroke="midnightblue" d="M186.514,-211.326C200.72,-184.182 230.133,-135.795 270,-111 283.934,-102.334 300.935,-97.3401 316.84,-94.4889"/>
<polygon fill="midnightblue" stroke="midnightblue" points="183.374,-209.78 181.978,-220.282 189.619,-212.943 183.374,-209.78"/>
</g>
<!-- Node0&#45;&gt;Node10 -->
<g id="edge20" class="edge"><title>Node0&#45;&gt;Node10</title>
<path fill="none" stroke="midnightblue" d="M182.869,-210.415C193.87,-175.775 221.019,-106.175 270,-71 275.219,-67.2523 280.976,-64.1701 287.007,-61.6394"/>
<polygon fill="midnightblue" stroke="midnightblue" points="179.41,-209.76 179.857,-220.346 186.109,-211.792 179.41,-209.76"/>
</g>
<!-- Node13 -->
<g id="node14" class="node"><title>Node13</title>
<a xlink:href="group__grp__crf.html" target="_top" xlink:title="Conditional Random Field">
<polygon fill="white" stroke="black" points="299,-0.5 299,-21.5 437,-21.5 437,-0.5 299,-0.5"/>
<text text-anchor="middle" x="368" y="-8.5" font-family="FreeSans.ttf" font-size="10.00">Conditional Random Field</text>
</a>
</g>
<!-- Node0&#45;&gt;Node13 -->
<g id="edge26" class="edge"><title>Node0&#45;&gt;Node13</title>
<path fill="none" stroke="midnightblue" d="M180.33,-210.298C188.086,-169.202 211.365,-77.3037 270,-31 278.381,-24.3815 288.391,-19.7888 298.764,-16.6304"/>
<polygon fill="midnightblue" stroke="midnightblue" points="176.865,-209.79 178.572,-220.246 183.759,-211.007 176.865,-209.79"/>
</g>
</g>
</svg>
