<?xml version="1.0" encoding="UTF-8" standalone="no"?>
<!DOCTYPE svg PUBLIC "-//W3C//DTD SVG 1.1//EN"
 "http://www.w3.org/Graphics/SVG/1.1/DTD/svg11.dtd">
<!-- Generated by graphviz version 2.26.3 (20100126.1600)
 -->
<!-- Title: structs Pages: 1 -->
<svg width="522pt" height="110pt"
 viewBox="0.00 0.00 522.00 110.00" xmlns="http://www.w3.org/2000/svg" xmlns:xlink="http://www.w3.org/1999/xlink">
<g id="graph1" class="graph" transform="scale(1 1) rotate(0) translate(4 106)">
<title>structs</title>
<polygon fill="white" stroke="white" points="-4,5 -4,-106 519,-106 519,5 -4,5"/>
<!-- Node3 -->
<g id="node1" class="node"><title>Node3</title>
<a xlink:href="group__grp__fmsketch.html" target="_top" xlink:title="FM (Flajolet&#45;Martin)">
<polygon fill="white" stroke="black" points="366.5,-80.5 366.5,-101.5 471.5,-101.5 471.5,-80.5 366.5,-80.5"/>
<text text-anchor="middle" x="419" y="-88.5" font-family="FreeSans.ttf" font-size="10.00">FM (Flajolet&#45;Martin)</text>
</a>
</g>
<!-- Node1 -->
<g id="node2" class="node"><title>Node1</title>
<a xlink:href="group__grp__desc__stats.html" target="_top" xlink:title="Descriptive Statistics">
<polygon fill="white" stroke="black" points="0,-40.5 0,-61.5 116,-61.5 116,-40.5 0,-40.5"/>
<text text-anchor="middle" x="58" y="-48.5" font-family="FreeSans.ttf" font-size="10.00">Descriptive Statistics</text>
</a>
</g>
<!-- Node0 -->
<g id="node4" class="node"><title>Node0</title>
<polygon fill="#bfbfbf" stroke="black" points="152.5,-40.5 152.5,-61.5 287.5,-61.5 287.5,-40.5 152.5,-40.5"/>
<text text-anchor="middle" x="220" y="-48.5" font-family="FreeSans.ttf" font-size="10.00">Sketch&#45;based Estimators</text>
</g>
<!-- Node1&#45;&gt;Node0 -->
<g id="edge2" class="edge"><title>Node1&#45;&gt;Node0</title>
<path fill="none" stroke="midnightblue" d="M126.13,-51C134.836,-51 143.746,-51 152.443,-51"/>
<polygon fill="midnightblue" stroke="midnightblue" points="126.028,-47.5001 116.028,-51 126.028,-54.5001 126.028,-47.5001"/>
</g>
<!-- Node2 -->
<g id="node3" class="node"><title>Node2</title>
<a xlink:href="group__grp__countmin.html" target="_top" xlink:title="CountMin (Cormode&#45;Muthukrishnan)">
<polygon fill="white" stroke="black" points="324.5,-40.5 324.5,-61.5 513.5,-61.5 513.5,-40.5 324.5,-40.5"/>
<text text-anchor="middle" x="419" y="-48.5" font-family="FreeSans.ttf" font-size="10.00">CountMin (Cormode&#45;Muthukrishnan)</text>
</a>
</g>
<!-- Node0&#45;&gt;Node3 -->
<g id="edge6" class="edge"><title>Node0&#45;&gt;Node3</title>
<path fill="none" stroke="midnightblue" d="M282.436,-63.55C309.523,-68.9946 340.885,-75.2986 366.719,-80.4913"/>
<polygon fill="midnightblue" stroke="midnightblue" points="282.779,-60.0489 272.285,-61.5095 281.399,-66.9116 282.779,-60.0489"/>
</g>
<!-- Node0&#45;&gt;Node2 -->
<g id="edge4" class="edge"><title>Node0&#45;&gt;Node2</title>
<path fill="none" stroke="midnightblue" d="M297.775,-51C306.506,-51 315.472,-51 324.385,-51"/>
<polygon fill="midnightblue" stroke="midnightblue" points="297.65,-47.5001 287.65,-51 297.65,-54.5001 297.65,-47.5001"/>
</g>
<!-- Node4 -->
<g id="node5" class="node"><title>Node4</title>
<a xlink:href="group__grp__mfvsketch.html" target="_top" xlink:title="MFV (Most Frequent Values)">
<polygon fill="white" stroke="black" points="345,-0.5 345,-21.5 493,-21.5 493,-0.5 345,-0.5"/>
<text text-anchor="middle" x="419" y="-8.5" font-family="FreeSans.ttf" font-size="10.00">MFV (Most Frequent Values)</text>
</a>
</g>
<!-- Node0&#45;&gt;Node4 -->
<g id="edge8" class="edge"><title>Node0&#45;&gt;Node4</title>
<path fill="none" stroke="midnightblue" d="M282.436,-38.45C309.523,-33.0054 340.885,-26.7014 366.719,-21.5087"/>
<polygon fill="midnightblue" stroke="midnightblue" points="281.399,-35.0884 272.285,-40.4905 282.779,-41.9511 281.399,-35.0884"/>
</g>
</g>
</svg>
