<?xml version="1.0" encoding="UTF-8" standalone="no"?>
<!DOCTYPE svg PUBLIC "-//W3C//DTD SVG 1.1//EN"
 "http://www.w3.org/Graphics/SVG/1.1/DTD/svg11.dtd">
<!-- Generated by graphviz version 2.26.3 (20100126.1600)
 -->
<!-- Title: structs Pages: 1 -->
<svg width="254pt" height="70pt"
 viewBox="0.00 0.00 254.00 70.00" xmlns="http://www.w3.org/2000/svg" xmlns:xlink="http://www.w3.org/1999/xlink">
<g id="graph1" class="graph" transform="scale(1 1) rotate(0) translate(4 66)">
<title>structs</title>
<polygon fill="white" stroke="white" points="-4,5 -4,-66 251,-66 251,5 -4,5"/>
<!-- Node0 -->
<g id="node1" class="node"><title>Node0</title>
<polygon fill="#bfbfbf" stroke="black" points="0,-20.5 0,-41.5 84,-41.5 84,-20.5 0,-20.5"/>
<text text-anchor="middle" x="42" y="-28.5" font-family="FreeSans.ttf" font-size="10.00">Data Modeling</text>
</g>
<!-- Node2 -->
<g id="node2" class="node"><title>Node2</title>
<a xlink:href="group__grp__unsuplearn.html" target="_top" xlink:title="Unsupervised Learning">
<polygon fill="white" stroke="black" points="120,-40.5 120,-61.5 246,-61.5 246,-40.5 120,-40.5"/>
<text text-anchor="middle" x="183" y="-48.5" font-family="FreeSans.ttf" font-size="10.00">Unsupervised Learning</text>
</a>
</g>
<!-- Node0&#45;&gt;Node2 -->
<g id="edge4" class="edge"><title>Node0&#45;&gt;Node2</title>
<path fill="none" stroke="midnightblue" d="M94.2624,-38.4131C102.603,-39.5962 111.309,-40.8311 119.869,-42.0452"/>
<polygon fill="midnightblue" stroke="midnightblue" points="94.6971,-34.9398 84.3046,-37.0007 93.714,-41.8704 94.6971,-34.9398"/>
</g>
<!-- Node1 -->
<g id="node3" class="node"><title>Node1</title>
<a xlink:href="group__grp__suplearn.html" target="_top" xlink:title="Supervised Learning">
<polygon fill="white" stroke="black" points="126,-0.5 126,-21.5 240,-21.5 240,-0.5 126,-0.5"/>
<text text-anchor="middle" x="183" y="-8.5" font-family="FreeSans.ttf" font-size="10.00">Supervised Learning</text>
</a>
</g>
<!-- Node0&#45;&gt;Node1 -->
<g id="edge2" class="edge"><title>Node0&#45;&gt;Node1</title>
<path fill="none" stroke="midnightblue" d="M94.3541,-23.5739C104.623,-22.1174 115.442,-20.5827 125.858,-19.1053"/>
<polygon fill="midnightblue" stroke="midnightblue" points="93.714,-20.1296 84.3046,-24.9993 94.6971,-27.0602 93.714,-20.1296"/>
</g>
</g>
</svg>
