<?xml version="1.0" encoding="UTF-8" standalone="no"?>
<!DOCTYPE svg PUBLIC "-//W3C//DTD SVG 1.1//EN"
 "http://www.w3.org/Graphics/SVG/1.1/DTD/svg11.dtd">
<!-- Generated by graphviz version 2.26.3 (20100126.1600)
 -->
<!-- Title: structs Pages: 1 -->
<svg width="282pt" height="310pt"
 viewBox="0.00 0.00 282.00 310.00" xmlns="http://www.w3.org/2000/svg" xmlns:xlink="http://www.w3.org/1999/xlink">
<g id="graph1" class="graph" transform="scale(1 1) rotate(0) translate(4 306)">
<title>structs</title>
<polygon fill="white" stroke="white" points="-4,5 -4,-306 279,-306 279,5 -4,5"/>
<!-- Node6 -->
<g id="node1" class="node"><title>Node6</title>
<a xlink:href="group__grp__sample.html" target="_top" xlink:title="Random Sampling">
<polygon fill="white" stroke="black" points="151,-280.5 151,-301.5 255,-301.5 255,-280.5 151,-280.5"/>
<text text-anchor="middle" x="203" y="-288.5" font-family="FreeSans.ttf" font-size="10.00">Random Sampling</text>
</a>
</g>
<!-- Node4 -->
<g id="node2" class="node"><title>Node4</title>
<a xlink:href="group__grp__svec.html" target="_top" xlink:title="Sparse Vectors">
<polygon fill="white" stroke="black" points="158.5,-240.5 158.5,-261.5 247.5,-261.5 247.5,-240.5 158.5,-240.5"/>
<text text-anchor="middle" x="203" y="-248.5" font-family="FreeSans.ttf" font-size="10.00">Sparse Vectors</text>
</a>
</g>
<!-- Node5 -->
<g id="node3" class="node"><title>Node5</title>
<a xlink:href="group__grp__prob.html" target="_top" xlink:title="Probability Functions">
<polygon fill="white" stroke="black" points="146,-200.5 146,-221.5 260,-221.5 260,-200.5 146,-200.5"/>
<text text-anchor="middle" x="203" y="-208.5" font-family="FreeSans.ttf" font-size="10.00">Probability Functions</text>
</a>
</g>
<!-- Node1 -->
<g id="node4" class="node"><title>Node1</title>
<a xlink:href="group__grp__array.html" target="_top" xlink:title="Array Operations">
<polygon fill="white" stroke="black" points="154,-160.5 154,-181.5 252,-181.5 252,-160.5 154,-160.5"/>
<text text-anchor="middle" x="203" y="-168.5" font-family="FreeSans.ttf" font-size="10.00">Array Operations</text>
</a>
</g>
<!-- Node0 -->
<g id="node5" class="node"><title>Node0</title>
<polygon fill="#bfbfbf" stroke="black" points="0.5,-140.5 0.5,-161.5 95.5,-161.5 95.5,-140.5 0.5,-140.5"/>
<text text-anchor="middle" x="48" y="-148.5" font-family="FreeSans.ttf" font-size="10.00">Support Modules</text>
</g>
<!-- Node0&#45;&gt;Node6 -->
<g id="edge12" class="edge"><title>Node0&#45;&gt;Node6</title>
<path fill="none" stroke="midnightblue" d="M56.6914,-171.033C69.3515,-197.845 95.4087,-245.025 132,-271 137.639,-275.003 144.058,-278.207 150.677,-280.771"/>
<polygon fill="midnightblue" stroke="midnightblue" points="59.834,-169.489 52.5013,-161.841 53.4646,-172.392 59.834,-169.489"/>
</g>
<!-- Node0&#45;&gt;Node4 -->
<g id="edge8" class="edge"><title>Node0&#45;&gt;Node4</title>
<path fill="none" stroke="midnightblue" d="M62.8115,-169.637C78.2392,-187.842 104.029,-215.067 132,-231 140.123,-235.627 149.387,-239.242 158.48,-242.045"/>
<polygon fill="midnightblue" stroke="midnightblue" points="65.1715,-166.998 56.1062,-161.515 59.7731,-171.455 65.1715,-166.998"/>
</g>
<!-- Node0&#45;&gt;Node5 -->
<g id="edge10" class="edge"><title>Node0&#45;&gt;Node5</title>
<path fill="none" stroke="midnightblue" d="M76.9298,-166.275C92.8859,-174.315 113.218,-183.941 132,-191 141.23,-194.469 151.331,-197.661 160.944,-200.428"/>
<polygon fill="midnightblue" stroke="midnightblue" points="78.1103,-162.947 67.6133,-161.51 74.9232,-169.18 78.1103,-162.947"/>
</g>
<!-- Node0&#45;&gt;Node1 -->
<g id="edge2" class="edge"><title>Node0&#45;&gt;Node1</title>
<path fill="none" stroke="midnightblue" d="M105.921,-158.474C121.667,-160.505 138.567,-162.686 153.782,-164.649"/>
<polygon fill="midnightblue" stroke="midnightblue" points="106.136,-154.972 95.7699,-157.164 105.24,-161.915 106.136,-154.972"/>
</g>
<!-- Node7 -->
<g id="node6" class="node"><title>Node7</title>
<a xlink:href="group__grp__compatibility.html" target="_top" xlink:title="Compatibility">
<polygon fill="white" stroke="black" points="163.5,-120.5 163.5,-141.5 242.5,-141.5 242.5,-120.5 163.5,-120.5"/>
<text text-anchor="middle" x="203" y="-128.5" font-family="FreeSans.ttf" font-size="10.00">Compatibility</text>
</a>
</g>
<!-- Node0&#45;&gt;Node7 -->
<g id="edge14" class="edge"><title>Node0&#45;&gt;Node7</title>
<path fill="none" stroke="midnightblue" d="M105.915,-143.527C125.093,-141.052 145.985,-138.357 163.458,-136.102"/>
<polygon fill="midnightblue" stroke="midnightblue" points="105.24,-140.085 95.7699,-144.836 106.136,-147.028 105.24,-140.085"/>
</g>
<!-- Node3 -->
<g id="node7" class="node"><title>Node3</title>
<a xlink:href="group__grp__linalg.html" target="_top" xlink:title="Linear&#45;Algebra Operations">
<polygon fill="white" stroke="black" points="132,-80.5 132,-101.5 274,-101.5 274,-80.5 132,-80.5"/>
<text text-anchor="middle" x="203" y="-88.5" font-family="FreeSans.ttf" font-size="10.00">Linear&#45;Algebra Operations</text>
</a>
</g>
<!-- Node0&#45;&gt;Node3 -->
<g id="edge6" class="edge"><title>Node0&#45;&gt;Node3</title>
<path fill="none" stroke="midnightblue" d="M76.9298,-135.725C92.8859,-127.685 113.218,-118.059 132,-111 141.23,-107.531 151.331,-104.339 160.944,-101.572"/>
<polygon fill="midnightblue" stroke="midnightblue" points="74.9232,-132.82 67.6133,-140.49 78.1103,-139.053 74.9232,-132.82"/>
</g>
<!-- Node2 -->
<g id="node8" class="node"><title>Node2</title>
<a xlink:href="group__grp__cg.html" target="_top" xlink:title="Conjugate Gradient">
<polygon fill="white" stroke="black" points="148.5,-40.5 148.5,-61.5 257.5,-61.5 257.5,-40.5 148.5,-40.5"/>
<text text-anchor="middle" x="203" y="-48.5" font-family="FreeSans.ttf" font-size="10.00">Conjugate Gradient</text>
</a>
</g>
<!-- Node0&#45;&gt;Node2 -->
<g id="edge4" class="edge"><title>Node0&#45;&gt;Node2</title>
<path fill="none" stroke="midnightblue" d="M62.8115,-132.363C78.2392,-114.158 104.029,-86.9333 132,-71 138.676,-67.1969 146.123,-64.0778 153.613,-61.5311"/>
<polygon fill="midnightblue" stroke="midnightblue" points="59.7731,-130.545 56.1062,-140.485 65.1715,-135.002 59.7731,-130.545"/>
</g>
<!-- Node8 -->
<g id="node9" class="node"><title>Node8</title>
<a xlink:href="group__grp__utilities.html" target="_top" xlink:title="DB Administrator Utilities">
<polygon fill="white" stroke="black" points="136.5,-0.5 136.5,-21.5 269.5,-21.5 269.5,-0.5 136.5,-0.5"/>
<text text-anchor="middle" x="203" y="-8.5" font-family="FreeSans.ttf" font-size="10.00">DB Administrator Utilities</text>
</a>
</g>
<!-- Node0&#45;&gt;Node8 -->
<g id="edge16" class="edge"><title>Node0&#45;&gt;Node8</title>
<path fill="none" stroke="midnightblue" d="M56.6914,-130.967C69.3515,-104.155 95.4087,-56.9753 132,-31 137.43,-27.1453 143.584,-24.0314 149.943,-21.5164"/>
<polygon fill="midnightblue" stroke="midnightblue" points="53.4646,-129.608 52.5013,-140.159 59.834,-132.511 53.4646,-129.608"/>
</g>
</g>
</svg>
