<?xml version="1.0" encoding="UTF-8" standalone="no"?>
<!DOCTYPE svg PUBLIC "-//W3C//DTD SVG 1.1//EN"
 "http://www.w3.org/Graphics/SVG/1.1/DTD/svg11.dtd">
<!-- Generated by graphviz version 2.26.3 (20100126.1600)
 -->
<!-- Title: structs Pages: 1 -->
<svg width="296pt" height="190pt"
 viewBox="0.00 0.00 296.00 190.00" xmlns="http://www.w3.org/2000/svg" xmlns:xlink="http://www.w3.org/1999/xlink">
<g id="graph1" class="graph" transform="scale(1 1) rotate(0) translate(4 186)">
<title>structs</title>
<polygon fill="white" stroke="white" points="-4,5 -4,-186 293,-186 293,5 -4,5"/>
<!-- Node0 -->
<g id="node1" class="node"><title>Node0</title>
<polygon fill="#bfbfbf" stroke="black" points="0,-80.5 0,-101.5 116,-101.5 116,-80.5 0,-80.5"/>
<text text-anchor="middle" x="58" y="-88.5" font-family="FreeSans.ttf" font-size="10.00">Descriptive Statistics</text>
</g>
<!-- Node1 -->
<g id="node2" class="node"><title>Node1</title>
<a xlink:href="group__grp__sketches.html" target="_top" xlink:title="Sketch&#45;based Estimators">
<polygon fill="white" stroke="black" points="152.5,-160.5 152.5,-181.5 287.5,-181.5 287.5,-160.5 152.5,-160.5"/>
<text text-anchor="middle" x="220" y="-168.5" font-family="FreeSans.ttf" font-size="10.00">Sketch&#45;based Estimators</text>
</a>
</g>
<!-- Node0&#45;&gt;Node1 -->
<g id="edge2" class="edge"><title>Node0&#45;&gt;Node1</title>
<path fill="none" stroke="midnightblue" d="M80.2191,-107.739C98.6468,-120.978 125.953,-139.146 152,-151 159.952,-154.619 168.724,-157.769 177.249,-160.432"/>
<polygon fill="midnightblue" stroke="midnightblue" points="82.0702,-104.757 71.9304,-101.685 77.9415,-110.41 82.0702,-104.757"/>
</g>
<!-- Node4 -->
<g id="node3" class="node"><title>Node4</title>
<a xlink:href="group__grp__correlation.html" target="_top" xlink:title="Pearson&#39;s correlation">
<polygon fill="white" stroke="black" points="162,-120.5 162,-141.5 278,-141.5 278,-120.5 162,-120.5"/>
<text text-anchor="middle" x="220" y="-128.5" font-family="FreeSans.ttf" font-size="10.00">Pearson&#39;s correlation</text>
</a>
</g>
<!-- Node0&#45;&gt;Node4 -->
<g id="edge8" class="edge"><title>Node0&#45;&gt;Node4</title>
<path fill="none" stroke="midnightblue" d="M110.29,-103.911C132.001,-109.272 156.873,-115.413 177.44,-120.491"/>
<polygon fill="midnightblue" stroke="midnightblue" points="111.111,-100.509 100.564,-101.51 109.433,-107.305 111.111,-100.509"/>
</g>
<!-- Node5 -->
<g id="node4" class="node"><title>Node5</title>
<a xlink:href="group__grp__quantile.html" target="_top" xlink:title="Quantile">
<polygon fill="white" stroke="black" points="192,-80.5 192,-101.5 248,-101.5 248,-80.5 192,-80.5"/>
<text text-anchor="middle" x="220" y="-88.5" font-family="FreeSans.ttf" font-size="10.00">Quantile</text>
</a>
</g>
<!-- Node0&#45;&gt;Node5 -->
<g id="edge10" class="edge"><title>Node0&#45;&gt;Node5</title>
<path fill="none" stroke="midnightblue" d="M126.143,-91C149.195,-91 173.672,-91 191.848,-91"/>
<polygon fill="midnightblue" stroke="midnightblue" points="126.028,-87.5001 116.028,-91 126.028,-94.5001 126.028,-87.5001"/>
</g>
<!-- Node3 -->
<g id="node5" class="node"><title>Node3</title>
<a xlink:href="group__grp__summary.html" target="_top" xlink:title="Summary">
<polygon fill="white" stroke="black" points="188,-40.5 188,-61.5 252,-61.5 252,-40.5 188,-40.5"/>
<text text-anchor="middle" x="220" y="-48.5" font-family="FreeSans.ttf" font-size="10.00">Summary</text>
</a>
</g>
<!-- Node0&#45;&gt;Node3 -->
<g id="edge6" class="edge"><title>Node0&#45;&gt;Node3</title>
<path fill="none" stroke="midnightblue" d="M110.473,-78.0437C136.003,-71.74 165.868,-64.366 187.958,-58.9117"/>
<polygon fill="midnightblue" stroke="midnightblue" points="109.433,-74.6953 100.564,-80.4905 111.111,-81.4912 109.433,-74.6953"/>
</g>
<!-- Node2 -->
<g id="node6" class="node"><title>Node2</title>
<a xlink:href="group__grp__profile.html" target="_top" xlink:title="Profile">
<polygon fill="white" stroke="black" points="197,-0.5 197,-21.5 243,-21.5 243,-0.5 197,-0.5"/>
<text text-anchor="middle" x="220" y="-8.5" font-family="FreeSans.ttf" font-size="10.00">Profile</text>
</a>
</g>
<!-- Node0&#45;&gt;Node2 -->
<g id="edge4" class="edge"><title>Node0&#45;&gt;Node2</title>
<path fill="none" stroke="midnightblue" d="M80.2191,-74.2608C98.6468,-61.0218 125.953,-42.8537 152,-31 166.336,-24.4757 183.336,-19.4757 196.752,-16.1068"/>
<polygon fill="midnightblue" stroke="midnightblue" points="77.9415,-71.5901 71.9304,-80.3147 82.0702,-77.2429 77.9415,-71.5901"/>
</g>
</g>
</svg>
