<?xml version="1.0" encoding="UTF-8" standalone="no"?>
<!DOCTYPE svg PUBLIC "-//W3C//DTD SVG 1.1//EN"
 "http://www.w3.org/Graphics/SVG/1.1/DTD/svg11.dtd">
<!-- Generated by graphviz version 2.26.3 (20100126.1600)
 -->
<!-- Title: Graph Legend Pages: 1 -->
<svg width="530pt" height="174pt"
 viewBox="0.00 0.00 530.00 174.00" xmlns="http://www.w3.org/2000/svg" xmlns:xlink="http://www.w3.org/1999/xlink">
<g id="graph1" class="graph" transform="scale(1 1) rotate(0) translate(4 170)">
<title>Graph Legend</title>
<polygon fill="white" stroke="white" points="-4,5 -4,-170 527,-170 527,5 -4,5"/>
<!-- Node9 -->
<g id="node1" class="node"><title>Node9</title>
<polygon fill="#bfbfbf" stroke="black" points="302,-21.5 244,-21.5 244,-0.5 302,-0.5 302,-21.5"/>
<text text-anchor="middle" x="273" y="-8.5" font-family="FreeSans.ttf" font-size="10.00">Inherited</text>
</g>
<!-- Node10 -->
<g id="node2" class="node"><title>Node10</title>
<a xlink:href="$classPublicBase.html" xlink:title="PublicBase">
<polygon fill="none" stroke="black" points="68,-93.5 3.55271e-14,-93.5 0,-72.5 68,-72.5 68,-93.5"/>
<text text-anchor="middle" x="34" y="-80.5" font-family="FreeSans.ttf" font-size="10.00">PublicBase</text>
</a>
</g>
<!-- Node10&#45;&gt;Node9 -->
<g id="edge2" class="edge"><title>Node10&#45;&gt;Node9</title>
<path fill="none" stroke="midnightblue" d="M78.094,-69.7164C126.336,-55.1832 202.301,-32.2985 243.707,-19.8247"/>
<polygon fill="midnightblue" stroke="midnightblue" points="76.8082,-66.4483 68.2429,-72.6842 78.8274,-73.1508 76.8082,-66.4483"/>
</g>
<!-- Node11 -->
<g id="node4" class="node"><title>Node11</title>
<a xlink:href="$classTruncated.html" xlink:title="Truncated">
<polygon fill="none" stroke="red" points="66,-165.5 2,-165.5 2,-144.5 66,-144.5 66,-165.5"/>
<text text-anchor="middle" x="34" y="-152.5" font-family="FreeSans.ttf" font-size="10.00">Truncated</text>
</a>
</g>
<!-- Node11&#45;&gt;Node10 -->
<g id="edge4" class="edge"><title>Node11&#45;&gt;Node10</title>
<path fill="none" stroke="midnightblue" d="M34,-134.235C34,-120.969 34,-104.319 34,-93.6674"/>
<polygon fill="midnightblue" stroke="midnightblue" points="30.5001,-134.376 34,-144.376 37.5001,-134.376 30.5001,-134.376"/>
</g>
<!-- Node13 -->
<g id="node6" class="node"><title>Node13</title>
<a xlink:href="$classProtectedBase.html" xlink:title="ProtectedBase">
<polygon fill="none" stroke="black" points="170,-93.5 86,-93.5 86,-72.5 170,-72.5 170,-93.5"/>
<text text-anchor="middle" x="128" y="-80.5" font-family="FreeSans.ttf" font-size="10.00">ProtectedBase</text>
</a>
</g>
<!-- Node13&#45;&gt;Node9 -->
<g id="edge6" class="edge"><title>Node13&#45;&gt;Node9</title>
<path fill="none" stroke="darkgreen" d="M158.685,-67.7634C186.557,-53.9236 226.956,-33.8633 251.517,-21.6674"/>
<polygon fill="darkgreen" stroke="darkgreen" points="156.795,-64.7939 149.395,-72.3762 159.908,-71.0635 156.795,-64.7939"/>
</g>
<!-- Node14 -->
<g id="node8" class="node"><title>Node14</title>
<a xlink:href="$classPrivateBase.html" xlink:title="PrivateBase">
<polygon fill="none" stroke="black" points="260,-93.5 188,-93.5 188,-72.5 260,-72.5 260,-93.5"/>
<text text-anchor="middle" x="224" y="-80.5" font-family="FreeSans.ttf" font-size="10.00">PrivateBase</text>
</a>
</g>
<!-- Node14&#45;&gt;Node9 -->
<g id="edge8" class="edge"><title>Node14&#45;&gt;Node9</title>
<path fill="none" stroke="#8b1a1a" d="M237.06,-63.8099C246.247,-50.3106 258.201,-32.7449 265.74,-21.6674"/>
<polygon fill="#8b1a1a" stroke="#8b1a1a" points="233.963,-62.1398 231.23,-72.3762 239.75,-66.0782 233.963,-62.1398"/>
</g>
<!-- Node15 -->
<g id="node10" class="node"><title>Node15</title>
<polygon fill="none" stroke="#bfbfbf" points="368,-93.5 278,-93.5 278,-72.5 368,-72.5 368,-93.5"/>
<text text-anchor="middle" x="323" y="-80.5" font-family="FreeSans.ttf" font-size="10.00">Undocumented</text>
</g>
<!-- Node15&#45;&gt;Node9 -->
<g id="edge10" class="edge"><title>Node15&#45;&gt;Node9</title>
<path fill="none" stroke="midnightblue" d="M309.674,-63.8099C300.299,-50.3106 288.101,-32.7449 280.408,-21.6674"/>
<polygon fill="midnightblue" stroke="midnightblue" points="307.044,-66.1588 315.622,-72.3762 312.793,-62.166 307.044,-66.1588"/>
</g>
<!-- Node16 -->
<g id="node12" class="node"><title>Node16</title>
<a xlink:href="$classTempl.html" xlink:title="Templ&lt; int &gt;">
<polygon fill="none" stroke="black" points="464,-93.5 386,-93.5 386,-72.5 464,-72.5 464,-93.5"/>
<text text-anchor="middle" x="425" y="-80.5" font-family="FreeSans.ttf" font-size="10.00">Templ&lt; int &gt;</text>
</a>
</g>
<!-- Node16&#45;&gt;Node9 -->
<g id="edge12" class="edge"><title>Node16&#45;&gt;Node9</title>
<path fill="none" stroke="midnightblue" d="M393.216,-67.9443C363.987,-54.099 321.379,-33.9165 295.52,-21.6674"/>
<polygon fill="midnightblue" stroke="midnightblue" points="392.036,-71.2583 402.572,-72.3762 395.033,-64.9321 392.036,-71.2583"/>
</g>
<!-- Node17 -->
<g id="node14" class="node"><title>Node17</title>
<a xlink:href="$classTempl.html" xlink:title="Templ&lt; T &gt;">
<polygon fill="none" stroke="black" points="461,-165.5 389,-165.5 389,-144.5 461,-144.5 461,-165.5"/>
<text text-anchor="middle" x="425" y="-152.5" font-family="FreeSans.ttf" font-size="10.00">Templ&lt; T &gt;</text>
</a>
</g>
<!-- Node17&#45;&gt;Node16 -->
<g id="edge14" class="edge"><title>Node17&#45;&gt;Node16</title>
<path fill="none" stroke="orange" stroke-dasharray="5,2" d="M425,-134.235C425,-120.969 425,-104.319 425,-93.6674"/>
<polygon fill="orange" stroke="orange" points="421.5,-134.376 425,-144.376 428.5,-134.376 421.5,-134.376"/>
<text text-anchor="middle" x="441.5" y="-116.5" font-family="FreeSans.ttf" font-size="10.00">&lt; int &gt;</text>
</g>
<!-- Node18 -->
<g id="node16" class="node"><title>Node18</title>
<a xlink:href="$classUsed.html" xlink:title="Used">
<polygon fill="none" stroke="black" points="522,-93.5 482,-93.5 482,-72.5 522,-72.5 522,-93.5"/>
<text text-anchor="middle" x="502" y="-80.5" font-family="FreeSans.ttf" font-size="10.00">Used</text>
</a>
</g>
<!-- Node18&#45;&gt;Node9 -->
<g id="edge16" class="edge"><title>Node18&#45;&gt;Node9</title>
<path fill="none" stroke="#9a32cd" stroke-dasharray="5,2" d="M472.055,-71.815C406.071,-49.449 339.259,-29.8508 302.008,-19.1905"/>
<polygon fill="#9a32cd" stroke="#9a32cd" points="471.186,-75.2167 481.781,-75.1343 473.447,-68.5919 471.186,-75.2167"/>
<text text-anchor="middle" x="444.5" y="-44.5" font-family="FreeSans.ttf" font-size="10.00">m_usedClass</text>
</g>
</g>
</svg>
