<?xml version="1.0" encoding="UTF-8" standalone="no"?>
<!DOCTYPE svg PUBLIC "-//W3C//DTD SVG 1.1//EN"
 "http://www.w3.org/Graphics/SVG/1.1/DTD/svg11.dtd">
<!-- Generated by graphviz version 2.26.3 (20100126.1600)
 -->
<!-- Title: Linear Systems Pages: 1 -->
<svg width="260pt" height="70pt"
 viewBox="0.00 0.00 260.00 70.00" xmlns="http://www.w3.org/2000/svg" xmlns:xlink="http://www.w3.org/1999/xlink">
<g id="graph1" class="graph" transform="scale(1 1) rotate(0) translate(4 66)">
<title>Linear Systems</title>
<polygon fill="white" stroke="white" points="-4,5 -4,-66 257,-66 257,5 -4,5"/>
<!-- Node1 -->
<g id="node1" class="node"><title>Node1</title>
<a xlink:href="group__grp__dense__linear__solver.html" target="_top" xlink:title="Dense Linear Systems">
<polygon fill="white" stroke="black" points="127,-40.5 127,-61.5 251,-61.5 251,-40.5 127,-40.5"/>
<text text-anchor="middle" x="189" y="-48.5" font-family="FreeSans.ttf" font-size="10.00">Dense Linear Systems</text>
</a>
</g>
<!-- Node2 -->
<g id="node2" class="node"><title>Node2</title>
<a xlink:href="group__grp__sparse__linear__solver.html" target="_top" xlink:title="Sparse Linear Systems">
<polygon fill="white" stroke="black" points="126,-0.5 126,-21.5 252,-21.5 252,-0.5 126,-0.5"/>
<text text-anchor="middle" x="189" y="-8.5" font-family="FreeSans.ttf" font-size="10.00">Sparse Linear Systems</text>
</a>
</g>
<!-- Node0 -->
<g id="node3" class="node"><title>Node0</title>
<polygon fill="#bfbfbf" stroke="black" points="0,-20.5 0,-41.5 90,-41.5 90,-20.5 0,-20.5"/>
<text text-anchor="middle" x="45" y="-28.5" font-family="FreeSans.ttf" font-size="10.00">Linear Systems</text>
</g>
<!-- Node0&#45;&gt;Node1 -->
<g id="edge2" class="edge"><title>Node0&#45;&gt;Node1</title>
<path fill="none" stroke="midnightblue" d="M100.206,-38.6675C108.921,-39.8779 117.984,-41.1367 126.845,-42.3673"/>
<polygon fill="midnightblue" stroke="midnightblue" points="100.554,-35.1823 90.1674,-37.2733 99.5908,-42.1157 100.554,-35.1823"/>
</g>
<!-- Node0&#45;&gt;Node2 -->
<g id="edge4" class="edge"><title>Node0&#45;&gt;Node2</title>
<path fill="none" stroke="midnightblue" d="M100.192,-23.3345C108.567,-22.1712 117.265,-20.9633 125.794,-19.7785"/>
<polygon fill="midnightblue" stroke="midnightblue" points="99.5908,-19.8843 90.1674,-24.7267 100.554,-26.8177 99.5908,-19.8843"/>
</g>
</g>
</svg>
