<?xml version="1.0" encoding="UTF-8" standalone="no"?>
<!DOCTYPE svg PUBLIC "-//W3C//DTD SVG 1.1//EN"
 "http://www.w3.org/Graphics/SVG/1.1/DTD/svg11.dtd">
<!-- Generated by graphviz version 2.26.3 (20100126.1600)
 -->
<!-- Title: Descriptive Statistics Pages: 1 -->
<svg width="276pt" height="70pt"
 viewBox="0.00 0.00 276.00 70.00" xmlns="http://www.w3.org/2000/svg" xmlns:xlink="http://www.w3.org/1999/xlink">
<g id="graph1" class="graph" transform="scale(1 1) rotate(0) translate(4 66)">
<title>Descriptive Statistics</title>
<polygon fill="white" stroke="white" points="-4,5 -4,-66 273,-66 273,5 -4,5"/>
<!-- Node0 -->
<g id="node1" class="node"><title>Node0</title>
<polygon fill="#bfbfbf" stroke="black" points="0,-20.5 0,-41.5 116,-41.5 116,-20.5 0,-20.5"/>
<text text-anchor="middle" x="58" y="-28.5" font-family="FreeSans.ttf" font-size="10.00">Descriptive Statistics</text>
</g>
<!-- Node2 -->
<g id="node2" class="node"><title>Node2</title>
<a xlink:href="group__grp__correlation.html" target="_top" xlink:title="Pearson&#39;s correlation">
<polygon fill="white" stroke="black" points="152,-40.5 152,-61.5 268,-61.5 268,-40.5 152,-40.5"/>
<text text-anchor="middle" x="210" y="-48.5" font-family="FreeSans.ttf" font-size="10.00">Pearson&#39;s correlation</text>
</a>
</g>
<!-- Node0&#45;&gt;Node2 -->
<g id="edge4" class="edge"><title>Node0&#45;&gt;Node2</title>
<path fill="none" stroke="midnightblue" d="M126.264,-39.9821C134.798,-41.105 143.463,-42.2452 151.824,-43.3452"/>
<polygon fill="midnightblue" stroke="midnightblue" points="126.704,-36.5099 116.332,-38.6753 125.79,-43.45 126.704,-36.5099"/>
</g>
<!-- Node1 -->
<g id="node3" class="node"><title>Node1</title>
<a xlink:href="group__grp__summary.html" target="_top" xlink:title="Summary">
<polygon fill="white" stroke="black" points="178,-0.5 178,-21.5 242,-21.5 242,-0.5 178,-0.5"/>
<text text-anchor="middle" x="210" y="-8.5" font-family="FreeSans.ttf" font-size="10.00">Summary</text>
</a>
</g>
<!-- Node0&#45;&gt;Node1 -->
<g id="edge2" class="edge"><title>Node0&#45;&gt;Node1</title>
<path fill="none" stroke="midnightblue" d="M126.256,-22.019C144.274,-19.6482 162.878,-17.2002 177.962,-15.2155"/>
<polygon fill="midnightblue" stroke="midnightblue" points="125.79,-18.55 116.332,-23.3247 126.704,-25.4901 125.79,-18.55"/>
</g>
</g>
</svg>
