<?xml version="1.0" encoding="UTF-8" standalone="no"?>
<!DOCTYPE svg PUBLIC "-//W3C//DTD SVG 1.1//EN"
 "http://www.w3.org/Graphics/SVG/1.1/DTD/svg11.dtd">
<!-- Generated by graphviz version 2.26.3 (20100126.1600)
 -->
<!-- Title: Principal Component Analysis Pages: 1 -->
<svg width="246pt" height="70pt"
 viewBox="0.00 0.00 246.00 70.00" xmlns="http://www.w3.org/2000/svg" xmlns:xlink="http://www.w3.org/1999/xlink">
<g id="graph1" class="graph" transform="scale(1 1) rotate(0) translate(4 66)">
<title>Principal Component Analysis</title>
<polygon fill="white" stroke="white" points="-4,5 -4,-66 243,-66 243,5 -4,5"/>
<!-- Node2 -->
<g id="node1" class="node"><title>Node2</title>
<a xlink:href="group__grp__pca__project.html" target="_top" xlink:title="PCA Projection">
<polygon fill="white" stroke="black" points="152,-40.5 152,-61.5 238,-61.5 238,-40.5 152,-40.5"/>
<text text-anchor="middle" x="195" y="-48.5" font-family="FreeSans.ttf" font-size="10.00">PCA Projection</text>
</a>
</g>
<!-- Node0 -->
<g id="node2" class="node"><title>Node0</title>
<polygon fill="#bfbfbf" stroke="black" points="0,-14 0,-48 116,-48 116,-14 0,-14"/>
<text text-anchor="start" x="8" y="-35" font-family="FreeSans.ttf" font-size="10.00">Principal Component</text>
<text text-anchor="middle" x="58" y="-22" font-family="FreeSans.ttf" font-size="10.00"> Analysis</text>
</g>
<!-- Node0&#45;&gt;Node2 -->
<g id="edge4" class="edge"><title>Node0&#45;&gt;Node2</title>
<path fill="none" stroke="midnightblue" d="M126.261,-40.9651C134.947,-42.2332 143.638,-43.5019 151.776,-44.6899"/>
<polygon fill="midnightblue" stroke="midnightblue" points="126.501,-37.4631 116.1,-39.4818 125.49,-44.3897 126.501,-37.4631"/>
</g>
<!-- Node1 -->
<g id="node3" class="node"><title>Node1</title>
<a xlink:href="group__grp__pca__train.html" target="_top" xlink:title="PCA Training">
<polygon fill="white" stroke="black" points="156.5,-0.5 156.5,-21.5 233.5,-21.5 233.5,-0.5 156.5,-0.5"/>
<text text-anchor="middle" x="195" y="-8.5" font-family="FreeSans.ttf" font-size="10.00">PCA Training</text>
</a>
</g>
<!-- Node0&#45;&gt;Node1 -->
<g id="edge2" class="edge"><title>Node0&#45;&gt;Node1</title>
<path fill="none" stroke="midnightblue" d="M126.023,-21.0697C136.409,-19.5534 146.81,-18.035 156.271,-16.6539"/>
<polygon fill="midnightblue" stroke="midnightblue" points="125.49,-17.6103 116.1,-22.5182 126.501,-24.5369 125.49,-17.6103"/>
</g>
</g>
</svg>
