<?xml version="1.0" encoding="UTF-8" standalone="no"?>
<!DOCTYPE svg PUBLIC "-//W3C//DTD SVG 1.1//EN"
 "http://www.w3.org/Graphics/SVG/1.1/DTD/svg11.dtd">
<!-- Generated by graphviz version 2.26.3 (20100126.1600)
 -->
<!-- Title: Early Stage Development Pages: 1 -->
<svg width="326pt" height="522pt"
 viewBox="0.00 0.00 326.00 522.00" xmlns="http://www.w3.org/2000/svg" xmlns:xlink="http://www.w3.org/1999/xlink">
<g id="graph1" class="graph" transform="scale(1 1) rotate(0) translate(4 518)">
<title>Early Stage Development</title>
<polygon fill="white" stroke="white" points="-4,5 -4,-518 323,-518 323,5 -4,5"/>
<!-- Node12 -->
<g id="node1" class="node"><title>Node12</title>
<a xlink:href="group__grp__sample.html" target="_top" xlink:title="Random Sampling">
<polygon fill="white" stroke="black" points="194,-492.5 194,-513.5 298,-513.5 298,-492.5 194,-492.5"/>
<text text-anchor="middle" x="246" y="-500.5" font-family="FreeSans.ttf" font-size="10.00">Random Sampling</text>
</a>
</g>
<!-- Node0 -->
<g id="node2" class="node"><title>Node0</title>
<polygon fill="#bfbfbf" stroke="black" points="0,-252.5 0,-273.5 138,-273.5 138,-252.5 0,-252.5"/>
<text text-anchor="middle" x="69" y="-260.5" font-family="FreeSans.ttf" font-size="10.00">Early Stage Development</text>
</g>
<!-- Node0&#45;&gt;Node12 -->
<g id="edge24" class="edge"><title>Node0&#45;&gt;Node12</title>
<path fill="none" stroke="midnightblue" d="M72.8731,-283.609C82.1643,-327.209 109.883,-429.19 174,-483 179.764,-487.837 186.611,-491.509 193.756,-494.296"/>
<polygon fill="midnightblue" stroke="midnightblue" points="76.266,-282.728 70.8538,-273.62 69.4048,-284.116 76.266,-282.728"/>
</g>
<!-- Node3 -->
<g id="node3" class="node"><title>Node3</title>
<a xlink:href="group__grp__rf.html" target="_top" xlink:title="Random Forest">
<polygon fill="white" stroke="black" points="201.5,-452.5 201.5,-473.5 290.5,-473.5 290.5,-452.5 201.5,-452.5"/>
<text text-anchor="middle" x="246" y="-460.5" font-family="FreeSans.ttf" font-size="10.00">Random Forest</text>
</a>
</g>
<!-- Node0&#45;&gt;Node3 -->
<g id="edge6" class="edge"><title>Node0&#45;&gt;Node3</title>
<path fill="none" stroke="midnightblue" d="M75.2604,-283.681C87.7185,-321.265 119.239,-400.777 174,-443 181.911,-449.1 191.577,-453.339 201.226,-456.286"/>
<polygon fill="midnightblue" stroke="midnightblue" points="78.4987,-282.316 72.1244,-273.853 71.83,-284.444 78.4987,-282.316"/>
</g>
<!-- Node4 -->
<g id="node4" class="node"><title>Node4</title>
<a xlink:href="group__grp__kernmach.html" target="_top" xlink:title="Support Vector Machines">
<polygon fill="white" stroke="black" points="178.5,-412.5 178.5,-433.5 313.5,-433.5 313.5,-412.5 178.5,-412.5"/>
<text text-anchor="middle" x="246" y="-420.5" font-family="FreeSans.ttf" font-size="10.00">Support Vector Machines</text>
</a>
</g>
<!-- Node0&#45;&gt;Node4 -->
<g id="edge8" class="edge"><title>Node0&#45;&gt;Node4</title>
<path fill="none" stroke="midnightblue" d="M78.4721,-282.87C94.0545,-313.4 128.014,-371.599 174,-403 179.571,-406.804 185.85,-409.888 192.318,-412.388"/>
<polygon fill="midnightblue" stroke="midnightblue" points="81.4806,-281.059 73.9013,-273.656 75.2098,-284.17 81.4806,-281.059"/>
</g>
<!-- Node2 -->
<g id="node5" class="node"><title>Node2</title>
<a xlink:href="group__grp__dectree.html" target="_top" xlink:title="Decision Tree">
<polygon fill="white" stroke="black" points="205,-372.5 205,-393.5 287,-393.5 287,-372.5 205,-372.5"/>
<text text-anchor="middle" x="246" y="-380.5" font-family="FreeSans.ttf" font-size="10.00">Decision Tree</text>
</a>
</g>
<!-- Node0&#45;&gt;Node2 -->
<g id="edge4" class="edge"><title>Node0&#45;&gt;Node2</title>
<path fill="none" stroke="midnightblue" d="M83.3237,-281.325C101.877,-303.829 136.333,-341.634 174,-363 183.366,-368.313 194.227,-372.283 204.63,-375.222"/>
<polygon fill="midnightblue" stroke="midnightblue" points="86.0236,-279.097 77.0184,-273.515 80.5772,-283.495 86.0236,-279.097"/>
</g>
<!-- Node6 -->
<g id="node6" class="node"><title>Node6</title>
<a xlink:href="group__grp__svdmf.html" target="_top" xlink:title="SVD Matrix Factorisation">
<polygon fill="white" stroke="black" points="180.5,-332.5 180.5,-353.5 311.5,-353.5 311.5,-332.5 180.5,-332.5"/>
<text text-anchor="middle" x="246" y="-340.5" font-family="FreeSans.ttf" font-size="10.00">SVD Matrix Factorisation</text>
</a>
</g>
<!-- Node0&#45;&gt;Node6 -->
<g id="edge12" class="edge"><title>Node0&#45;&gt;Node6</title>
<path fill="none" stroke="midnightblue" d="M93.2187,-279.153C113.951,-292.406 144.966,-310.894 174,-323 182.621,-326.595 192.088,-329.75 201.244,-332.427"/>
<polygon fill="midnightblue" stroke="midnightblue" points="95.0253,-276.154 84.7302,-273.652 91.218,-282.028 95.0253,-276.154"/>
</g>
<!-- Node7 -->
<g id="node7" class="node"><title>Node7</title>
<a xlink:href="group__grp__sketches.html" target="_top" xlink:title="Sketch&#45;based Estimators">
<polygon fill="white" stroke="black" points="178.5,-292.5 178.5,-313.5 313.5,-313.5 313.5,-292.5 178.5,-292.5"/>
<text text-anchor="middle" x="246" y="-300.5" font-family="FreeSans.ttf" font-size="10.00">Sketch&#45;based Estimators</text>
</a>
</g>
<!-- Node0&#45;&gt;Node7 -->
<g id="edge14" class="edge"><title>Node0&#45;&gt;Node7</title>
<path fill="none" stroke="midnightblue" d="M125.491,-275.766C149.363,-281.161 176.825,-287.367 199.499,-292.491"/>
<polygon fill="midnightblue" stroke="midnightblue" points="126.03,-272.3 115.505,-273.51 124.487,-279.128 126.03,-272.3"/>
</g>
<!-- Node1 -->
<g id="node8" class="node"><title>Node1</title>
<a xlink:href="group__grp__bayes.html" target="_top" xlink:title="Naive Bayes Classification">
<polygon fill="white" stroke="black" points="174.5,-252.5 174.5,-273.5 317.5,-273.5 317.5,-252.5 174.5,-252.5"/>
<text text-anchor="middle" x="246" y="-260.5" font-family="FreeSans.ttf" font-size="10.00">Naive Bayes Classification</text>
</a>
</g>
<!-- Node0&#45;&gt;Node1 -->
<g id="edge2" class="edge"><title>Node0&#45;&gt;Node1</title>
<path fill="none" stroke="midnightblue" d="M148.269,-263C156.915,-263 165.68,-263 174.23,-263"/>
<polygon fill="midnightblue" stroke="midnightblue" points="148.193,-259.5 138.193,-263 148.193,-266.5 148.193,-259.5"/>
</g>
<!-- Node9 -->
<g id="node9" class="node"><title>Node9</title>
<a xlink:href="group__grp__quantile.html" target="_top" xlink:title="Quantile">
<polygon fill="white" stroke="black" points="218,-212.5 218,-233.5 274,-233.5 274,-212.5 218,-212.5"/>
<text text-anchor="middle" x="246" y="-220.5" font-family="FreeSans.ttf" font-size="10.00">Quantile</text>
</a>
</g>
<!-- Node0&#45;&gt;Node9 -->
<g id="edge18" class="edge"><title>Node0&#45;&gt;Node9</title>
<path fill="none" stroke="midnightblue" d="M125.275,-250.282C156.092,-243.318 192.946,-234.99 217.761,-229.382"/>
<polygon fill="midnightblue" stroke="midnightblue" points="124.487,-246.872 115.505,-252.49 126.03,-253.7 124.487,-246.872"/>
</g>
<!-- Node8 -->
<g id="node10" class="node"><title>Node8</title>
<a xlink:href="group__grp__profile.html" target="_top" xlink:title="Profile">
<polygon fill="white" stroke="black" points="223,-172.5 223,-193.5 269,-193.5 269,-172.5 223,-172.5"/>
<text text-anchor="middle" x="246" y="-180.5" font-family="FreeSans.ttf" font-size="10.00">Profile</text>
</a>
</g>
<!-- Node0&#45;&gt;Node8 -->
<g id="edge16" class="edge"><title>Node0&#45;&gt;Node8</title>
<path fill="none" stroke="midnightblue" d="M93.2187,-246.847C113.951,-233.594 144.966,-215.106 174,-203 189.806,-196.41 208.454,-191.298 222.812,-187.893"/>
<polygon fill="midnightblue" stroke="midnightblue" points="91.218,-243.972 84.7302,-252.348 95.0253,-249.846 91.218,-243.972"/>
</g>
<!-- Node5 -->
<g id="node11" class="node"><title>Node5</title>
<a xlink:href="group__grp__crf.html" target="_top" xlink:title="Conditional Random\l Field">
<polygon fill="white" stroke="black" points="189.5,-120 189.5,-154 302.5,-154 302.5,-120 189.5,-120"/>
<text text-anchor="start" x="197.5" y="-141" font-family="FreeSans.ttf" font-size="10.00">Conditional Random</text>
<text text-anchor="middle" x="246" y="-128" font-family="FreeSans.ttf" font-size="10.00"> Field</text>
</a>
</g>
<!-- Node0&#45;&gt;Node5 -->
<g id="edge10" class="edge"><title>Node0&#45;&gt;Node5</title>
<path fill="none" stroke="midnightblue" d="M83.8855,-244.788C102.782,-222.711 137.357,-185.657 174,-163 179.313,-159.715 185.102,-156.76 191.013,-154.124"/>
<polygon fill="midnightblue" stroke="midnightblue" points="81.196,-242.548 77.4393,-252.454 86.5538,-247.053 81.196,-242.548"/>
</g>
<!-- Node11 -->
<g id="node12" class="node"><title>Node11</title>
<a xlink:href="group__grp__linalg.html" target="_top" xlink:title="In linear algebra, the singular value decomposition (SVD) is a factorization of a real or complex mat...">
<polygon fill="white" stroke="black" points="175,-80.5 175,-101.5 317,-101.5 317,-80.5 175,-80.5"/>
<text text-anchor="middle" x="246" y="-88.5" font-family="FreeSans.ttf" font-size="10.00">Linear&#45;Algebra Operations</text>
</a>
</g>
<!-- Node0&#45;&gt;Node11 -->
<g id="edge22" class="edge"><title>Node0&#45;&gt;Node11</title>
<path fill="none" stroke="midnightblue" d="M77.385,-242.819C92.0349,-210.077 125.43,-145.573 174,-111 179.39,-107.163 185.49,-104.061 191.804,-101.554"/>
<polygon fill="midnightblue" stroke="midnightblue" points="74.0605,-241.688 73.2917,-252.255 80.4823,-244.474 74.0605,-241.688"/>
</g>
<!-- Node10 -->
<g id="node13" class="node"><title>Node10</title>
<a xlink:href="group__grp__cg.html" target="_top" xlink:title="Conjugate Gradient">
<polygon fill="white" stroke="black" points="191.5,-40.5 191.5,-61.5 300.5,-61.5 300.5,-40.5 191.5,-40.5"/>
<text text-anchor="middle" x="246" y="-48.5" font-family="FreeSans.ttf" font-size="10.00">Conjugate Gradient</text>
</a>
</g>
<!-- Node0&#45;&gt;Node10 -->
<g id="edge20" class="edge"><title>Node0&#45;&gt;Node10</title>
<path fill="none" stroke="midnightblue" d="M74.3712,-242.597C85.8008,-203.254 116.323,-116.756 174,-71 179.183,-66.8879 185.159,-63.6205 191.406,-61.0244"/>
<polygon fill="midnightblue" stroke="midnightblue" points="70.9607,-241.798 71.6471,-252.37 77.7037,-243.677 70.9607,-241.798"/>
</g>
<!-- Node13 -->
<g id="node14" class="node"><title>Node13</title>
<a xlink:href="group__grp__utilities.html" target="_top" xlink:title="DB Administrator Utilities">
<polygon fill="white" stroke="black" points="179.5,-0.5 179.5,-21.5 312.5,-21.5 312.5,-0.5 179.5,-0.5"/>
<text text-anchor="middle" x="246" y="-8.5" font-family="FreeSans.ttf" font-size="10.00">DB Administrator Utilities</text>
</a>
</g>
<!-- Node0&#45;&gt;Node13 -->
<g id="edge26" class="edge"><title>Node0&#45;&gt;Node13</title>
<path fill="none" stroke="midnightblue" d="M72.3454,-242.216C80.7662,-196.815 107.144,-88.2753 174,-31 178.433,-27.2018 183.533,-24.121 188.928,-21.6226"/>
<polygon fill="midnightblue" stroke="midnightblue" points="68.852,-241.875 70.5777,-252.328 75.7474,-243.08 68.852,-241.875"/>
</g>
</g>
</svg>
