<?xml version="1.0" encoding="UTF-8" standalone="no"?>
<!DOCTYPE svg PUBLIC "-//W3C//DTD SVG 1.1//EN"
 "http://www.w3.org/Graphics/SVG/1.1/DTD/svg11.dtd">
<!-- Generated by graphviz version 2.26.3 (20100126.1600)
 -->
<!-- Title: Support Modules Pages: 1 -->
<svg width="254pt" height="150pt"
 viewBox="0.00 0.00 254.00 150.00" xmlns="http://www.w3.org/2000/svg" xmlns:xlink="http://www.w3.org/1999/xlink">
<g id="graph1" class="graph" transform="scale(1 1) rotate(0) translate(4 146)">
<title>Support Modules</title>
<polygon fill="white" stroke="white" points="-4,5 -4,-146 251,-146 251,5 -4,5"/>
<!-- Node2 -->
<g id="node1" class="node"><title>Node2</title>
<a xlink:href="group__grp__svec.html" target="_top" xlink:title="Sparse Vectors">
<polygon fill="white" stroke="black" points="144.5,-120.5 144.5,-141.5 233.5,-141.5 233.5,-120.5 144.5,-120.5"/>
<text text-anchor="middle" x="189" y="-128.5" font-family="FreeSans.ttf" font-size="10.00">Sparse Vectors</text>
</a>
</g>
<!-- Node3 -->
<g id="node2" class="node"><title>Node3</title>
<a xlink:href="group__grp__prob.html" target="_top" xlink:title="Probability Functions">
<polygon fill="white" stroke="black" points="132,-80.5 132,-101.5 246,-101.5 246,-80.5 132,-80.5"/>
<text text-anchor="middle" x="189" y="-88.5" font-family="FreeSans.ttf" font-size="10.00">Probability Functions</text>
</a>
</g>
<!-- Node1 -->
<g id="node3" class="node"><title>Node1</title>
<a xlink:href="group__grp__array.html" target="_top" xlink:title="Array Operations">
<polygon fill="white" stroke="black" points="140,-40.5 140,-61.5 238,-61.5 238,-40.5 140,-40.5"/>
<text text-anchor="middle" x="189" y="-48.5" font-family="FreeSans.ttf" font-size="10.00">Array Operations</text>
</a>
</g>
<!-- Node0 -->
<g id="node4" class="node"><title>Node0</title>
<polygon fill="#bfbfbf" stroke="black" points="0.5,-60.5 0.5,-81.5 95.5,-81.5 95.5,-60.5 0.5,-60.5"/>
<text text-anchor="middle" x="48" y="-68.5" font-family="FreeSans.ttf" font-size="10.00">Support Modules</text>
</g>
<!-- Node0&#45;&gt;Node2 -->
<g id="edge4" class="edge"><title>Node0&#45;&gt;Node2</title>
<path fill="none" stroke="midnightblue" d="M78.0793,-86.2842C93.9362,-94.0956 113.821,-103.507 132,-111 140.048,-114.317 148.869,-117.585 157.116,-120.488"/>
<polygon fill="midnightblue" stroke="midnightblue" points="79.2903,-82.9775 68.7778,-81.6588 76.1734,-89.2454 79.2903,-82.9775"/>
</g>
<!-- Node0&#45;&gt;Node3 -->
<g id="edge6" class="edge"><title>Node0&#45;&gt;Node3</title>
<path fill="none" stroke="midnightblue" d="M105.906,-79.2136C114.373,-80.4146 123.09,-81.6511 131.548,-82.8508"/>
<polygon fill="midnightblue" stroke="midnightblue" points="106.129,-75.7102 95.7362,-77.7711 105.146,-82.6409 106.129,-75.7102"/>
</g>
<!-- Node0&#45;&gt;Node1 -->
<g id="edge2" class="edge"><title>Node0&#45;&gt;Node1</title>
<path fill="none" stroke="midnightblue" d="M105.929,-62.7831C117.201,-61.1843 128.916,-59.5226 139.871,-57.9687"/>
<polygon fill="midnightblue" stroke="midnightblue" points="105.146,-59.3591 95.7362,-64.2289 106.129,-66.2898 105.146,-59.3591"/>
</g>
<!-- Node4 -->
<g id="node5" class="node"><title>Node4</title>
<a xlink:href="group__grp__compatibility.html" target="_top" xlink:title="Compatibility">
<polygon fill="white" stroke="black" points="149.5,-0.5 149.5,-21.5 228.5,-21.5 228.5,-0.5 149.5,-0.5"/>
<text text-anchor="middle" x="189" y="-8.5" font-family="FreeSans.ttf" font-size="10.00">Compatibility</text>
</a>
</g>
<!-- Node0&#45;&gt;Node4 -->
<g id="edge8" class="edge"><title>Node0&#45;&gt;Node4</title>
<path fill="none" stroke="midnightblue" d="M78.0793,-55.7158C93.9362,-47.9044 113.821,-38.4927 132,-31 140.048,-27.6831 148.869,-24.4147 157.116,-21.5119"/>
<polygon fill="midnightblue" stroke="midnightblue" points="76.1734,-52.7546 68.7778,-60.3412 79.2903,-59.0225 76.1734,-52.7546"/>
</g>
</g>
</svg>
