<?xml version="1.0" encoding="UTF-8" standalone="no"?>
<!DOCTYPE svg PUBLIC "-//W3C//DTD SVG 1.1//EN"
 "http://www.w3.org/Graphics/SVG/1.1/DTD/svg11.dtd">
<!-- Generated by graphviz version 2.26.3 (20100126.1600)
 -->
<!-- Title: Generalized Linear Models Pages: 1 -->
<svg width="292pt" height="334pt"
 viewBox="0.00 0.00 292.00 334.00" xmlns="http://www.w3.org/2000/svg" xmlns:xlink="http://www.w3.org/1999/xlink">
<g id="graph1" class="graph" transform="scale(1 1) rotate(0) translate(4 330)">
<title>Generalized Linear Models</title>
<polygon fill="white" stroke="white" points="-4,5 -4,-330 289,-330 289,5 -4,5"/>
<!-- Node3 -->
<g id="node1" class="node"><title>Node3</title>
<a xlink:href="group__grp__mlogreg.html" target="_top" xlink:title="Multinomial Logistic\l Regression">
<polygon fill="white" stroke="black" points="159.5,-292 159.5,-326 268.5,-326 268.5,-292 159.5,-292"/>
<text text-anchor="start" x="167.5" y="-313" font-family="FreeSans.ttf" font-size="10.00">Multinomial Logistic</text>
<text text-anchor="middle" x="214" y="-300" font-family="FreeSans.ttf" font-size="10.00"> Regression</text>
</a>
</g>
<!-- Node5 -->
<g id="node2" class="node"><title>Node5</title>
<a xlink:href="group__grp__cox__prop__hazards.html" target="_top" xlink:title="Cox&#45;Proportional Hazards\l Regression">
<polygon fill="white" stroke="black" points="144.5,-240 144.5,-274 283.5,-274 283.5,-240 144.5,-240"/>
<text text-anchor="start" x="152.5" y="-261" font-family="FreeSans.ttf" font-size="10.00">Cox&#45;Proportional Hazards</text>
<text text-anchor="middle" x="214" y="-248" font-family="FreeSans.ttf" font-size="10.00"> Regression</text>
</a>
</g>
<!-- Node6 -->
<g id="node3" class="node"><title>Node6</title>
<a xlink:href="group__grp__robust.html" target="_top" xlink:title="Huber White Variance">
<polygon fill="white" stroke="black" points="154,-200.5 154,-221.5 274,-221.5 274,-200.5 154,-200.5"/>
<text text-anchor="middle" x="214" y="-208.5" font-family="FreeSans.ttf" font-size="10.00">Huber White Variance</text>
</a>
</g>
<!-- Node7 -->
<g id="node4" class="node"><title>Node7</title>
<a xlink:href="group__grp__clustered__errors.html" target="_top" xlink:title="Clustered Variance">
<polygon fill="white" stroke="black" points="160.5,-160.5 160.5,-181.5 267.5,-181.5 267.5,-160.5 160.5,-160.5"/>
<text text-anchor="middle" x="214" y="-168.5" font-family="FreeSans.ttf" font-size="10.00">Clustered Variance</text>
</a>
</g>
<!-- Node8 -->
<g id="node5" class="node"><title>Node8</title>
<a xlink:href="group__grp__marginal.html" target="_top" xlink:title="Marginal Effects">
<polygon fill="white" stroke="black" points="167.5,-120.5 167.5,-141.5 260.5,-141.5 260.5,-120.5 167.5,-120.5"/>
<text text-anchor="middle" x="214" y="-128.5" font-family="FreeSans.ttf" font-size="10.00">Marginal Effects</text>
</a>
</g>
<!-- Node2 -->
<g id="node6" class="node"><title>Node2</title>
<a xlink:href="group__grp__logreg.html" target="_top" xlink:title="Logistic Regression">
<polygon fill="white" stroke="black" points="159.5,-80.5 159.5,-101.5 268.5,-101.5 268.5,-80.5 159.5,-80.5"/>
<text text-anchor="middle" x="214" y="-88.5" font-family="FreeSans.ttf" font-size="10.00">Logistic Regression</text>
</a>
</g>
<!-- Node4 -->
<g id="node7" class="node"><title>Node4</title>
<a xlink:href="group__grp__elasticnet.html" target="_top" xlink:title="Elastic Net Regularization">
<polygon fill="white" stroke="black" points="145.5,-40.5 145.5,-61.5 282.5,-61.5 282.5,-40.5 145.5,-40.5"/>
<text text-anchor="middle" x="214" y="-48.5" font-family="FreeSans.ttf" font-size="10.00">Elastic Net Regularization</text>
</a>
</g>
<!-- Node1 -->
<g id="node8" class="node"><title>Node1</title>
<a xlink:href="group__grp__linreg.html" target="_top" xlink:title="Linear Regression">
<polygon fill="white" stroke="black" points="163,-0.5 163,-21.5 265,-21.5 265,-0.5 163,-0.5"/>
<text text-anchor="middle" x="214" y="-8.5" font-family="FreeSans.ttf" font-size="10.00">Linear Regression</text>
</a>
</g>
<!-- Node0 -->
<g id="node9" class="node"><title>Node0</title>
<polygon fill="#bfbfbf" stroke="black" points="0.5,-134 0.5,-168 107.5,-168 107.5,-134 0.5,-134"/>
<text text-anchor="start" x="8.5" y="-155" font-family="FreeSans.ttf" font-size="10.00">Generalized Linear</text>
<text text-anchor="middle" x="54" y="-142" font-family="FreeSans.ttf" font-size="10.00"> Models</text>
</g>
<!-- Node0&#45;&gt;Node3 -->
<g id="edge6" class="edge"><title>Node0&#45;&gt;Node3</title>
<path fill="none" stroke="midnightblue" d="M65.8147,-177.361C80.3008,-206.917 107.498,-254.435 144,-283 148.696,-286.675 153.965,-289.869 159.449,-292.636"/>
<polygon fill="midnightblue" stroke="midnightblue" points="68.8542,-175.603 61.3942,-168.079 62.5343,-178.613 68.8542,-175.603"/>
</g>
<!-- Node0&#45;&gt;Node5 -->
<g id="edge10" class="edge"><title>Node0&#45;&gt;Node5</title>
<path fill="none" stroke="midnightblue" d="M76.7448,-175.605C93.875,-192.976 118.672,-215.778 144,-231 149.445,-234.272 155.37,-237.244 161.392,-239.911"/>
<polygon fill="midnightblue" stroke="midnightblue" points="78.9076,-172.807 69.4392,-168.053 73.8763,-177.674 78.9076,-172.807"/>
</g>
<!-- Node0&#45;&gt;Node6 -->
<g id="edge12" class="edge"><title>Node0&#45;&gt;Node6</title>
<path fill="none" stroke="midnightblue" d="M98.5806,-172.292C112.911,-178.735 128.97,-185.543 144,-191 153.385,-194.407 163.644,-197.617 173.344,-200.425"/>
<polygon fill="midnightblue" stroke="midnightblue" points="99.9924,-169.089 89.4412,-168.128 97.0902,-175.459 99.9924,-169.089"/>
</g>
<!-- Node0&#45;&gt;Node7 -->
<g id="edge14" class="edge"><title>Node0&#45;&gt;Node7</title>
<path fill="none" stroke="midnightblue" d="M117.847,-158.981C131.957,-160.745 146.766,-162.596 160.419,-164.302"/>
<polygon fill="midnightblue" stroke="midnightblue" points="118.08,-155.483 107.723,-157.715 117.211,-162.429 118.08,-155.483"/>
</g>
<!-- Node0&#45;&gt;Node8 -->
<g id="edge16" class="edge"><title>Node0&#45;&gt;Node8</title>
<path fill="none" stroke="midnightblue" d="M117.871,-143.016C134.412,-140.949 151.912,-138.761 167.383,-136.827"/>
<polygon fill="midnightblue" stroke="midnightblue" points="117.211,-139.571 107.723,-144.285 118.08,-146.517 117.211,-139.571"/>
</g>
<!-- Node0&#45;&gt;Node2 -->
<g id="edge4" class="edge"><title>Node0&#45;&gt;Node2</title>
<path fill="none" stroke="midnightblue" d="M98.5806,-129.708C112.911,-123.265 128.97,-116.457 144,-111 153.385,-107.593 163.644,-104.383 173.344,-101.575"/>
<polygon fill="midnightblue" stroke="midnightblue" points="97.0902,-126.541 89.4412,-133.872 99.9924,-132.911 97.0902,-126.541"/>
</g>
<!-- Node0&#45;&gt;Node4 -->
<g id="edge8" class="edge"><title>Node0&#45;&gt;Node4</title>
<path fill="none" stroke="midnightblue" d="M76.0908,-126.123C93.0614,-108.418 117.943,-85.3185 144,-71 150.868,-67.2261 158.515,-64.1071 166.161,-61.5472"/>
<polygon fill="midnightblue" stroke="midnightblue" points="73.1562,-124.136 68.8743,-133.827 78.265,-128.922 73.1562,-124.136"/>
</g>
<!-- Node0&#45;&gt;Node1 -->
<g id="edge2" class="edge"><title>Node0&#45;&gt;Node1</title>
<path fill="none" stroke="midnightblue" d="M66.9673,-124.876C81.8768,-97.4959 108.883,-55.169 144,-31 149.726,-27.0589 156.223,-23.888 162.895,-21.3384"/>
<polygon fill="midnightblue" stroke="midnightblue" points="63.7851,-123.407 62.2047,-133.883 69.9732,-126.679 63.7851,-123.407"/>
</g>
</g>
</svg>
