<?xml version="1.0" encoding="UTF-8" standalone="no"?>
<!DOCTYPE svg PUBLIC "-//W3C//DTD SVG 1.1//EN"
 "http://www.w3.org/Graphics/SVG/1.1/DTD/svg11.dtd">
<!-- Generated by graphviz version 2.26.3 (20100126.1600)
 -->
<!-- Title: Sketch&#45;based Estimators Pages: 1 -->
<svg width="544pt" height="122pt"
 viewBox="0.00 0.00 544.00 122.00" xmlns="http://www.w3.org/2000/svg" xmlns:xlink="http://www.w3.org/1999/xlink">
<g id="graph1" class="graph" transform="scale(1 1) rotate(0) translate(4 118)">
<title>Sketch&#45;based Estimators</title>
<polygon fill="white" stroke="white" points="-4,5 -4,-118 541,-118 541,5 -4,5"/>
<!-- Node3 -->
<g id="node1" class="node"><title>Node3</title>
<a xlink:href="group__grp__fmsketch.html" target="_top" xlink:title="FM (Flajolet&#45;Martin)">
<polygon fill="white" stroke="black" points="388.5,-92.5 388.5,-113.5 493.5,-113.5 493.5,-92.5 388.5,-92.5"/>
<text text-anchor="middle" x="441" y="-100.5" font-family="FreeSans.ttf" font-size="10.00">FM (Flajolet&#45;Martin)</text>
</a>
</g>
<!-- Node1 -->
<g id="node2" class="node"><title>Node1</title>
<a xlink:href="group__grp__early__stage.html" target="_top" xlink:title="Early Stage Development">
<polygon fill="white" stroke="black" points="0,-52.5 0,-73.5 138,-73.5 138,-52.5 0,-52.5"/>
<text text-anchor="middle" x="69" y="-60.5" font-family="FreeSans.ttf" font-size="10.00">Early Stage Development</text>
</a>
</g>
<!-- Node0 -->
<g id="node4" class="node"><title>Node0</title>
<polygon fill="#bfbfbf" stroke="black" points="174.5,-52.5 174.5,-73.5 309.5,-73.5 309.5,-52.5 174.5,-52.5"/>
<text text-anchor="middle" x="242" y="-60.5" font-family="FreeSans.ttf" font-size="10.00">Sketch&#45;based Estimators</text>
</g>
<!-- Node1&#45;&gt;Node0 -->
<g id="edge2" class="edge"><title>Node1&#45;&gt;Node0</title>
<path fill="none" stroke="midnightblue" d="M148.448,-63C157.088,-63 165.823,-63 174.305,-63"/>
<polygon fill="midnightblue" stroke="midnightblue" points="148.369,-59.5001 138.369,-63 148.369,-66.5001 148.369,-59.5001"/>
</g>
<!-- Node2 -->
<g id="node3" class="node"><title>Node2</title>
<a xlink:href="group__grp__countmin.html" target="_top" xlink:title="CountMin (Cormode&#45;Muthukrishnan)">
<polygon fill="white" stroke="black" points="346.5,-52.5 346.5,-73.5 535.5,-73.5 535.5,-52.5 346.5,-52.5"/>
<text text-anchor="middle" x="441" y="-60.5" font-family="FreeSans.ttf" font-size="10.00">CountMin (Cormode&#45;Muthukrishnan)</text>
</a>
</g>
<!-- Node0&#45;&gt;Node3 -->
<g id="edge6" class="edge"><title>Node0&#45;&gt;Node3</title>
<path fill="none" stroke="midnightblue" d="M304.436,-75.55C331.523,-80.9946 362.885,-87.2986 388.719,-92.4913"/>
<polygon fill="midnightblue" stroke="midnightblue" points="304.779,-72.0489 294.285,-73.5095 303.399,-78.9116 304.779,-72.0489"/>
</g>
<!-- Node0&#45;&gt;Node2 -->
<g id="edge4" class="edge"><title>Node0&#45;&gt;Node2</title>
<path fill="none" stroke="midnightblue" d="M319.775,-63C328.506,-63 337.472,-63 346.385,-63"/>
<polygon fill="midnightblue" stroke="midnightblue" points="319.65,-59.5001 309.65,-63 319.65,-66.5001 319.65,-59.5001"/>
</g>
<!-- Node4 -->
<g id="node5" class="node"><title>Node4</title>
<a xlink:href="group__grp__mfvsketch.html" target="_top" xlink:title="MFV (Most Frequent\l Values)">
<polygon fill="white" stroke="black" points="386,-0 386,-34 496,-34 496,-0 386,-0"/>
<text text-anchor="start" x="394" y="-21" font-family="FreeSans.ttf" font-size="10.00">MFV (Most Frequent</text>
<text text-anchor="middle" x="441" y="-8" font-family="FreeSans.ttf" font-size="10.00"> Values)</text>
</a>
</g>
<!-- Node0&#45;&gt;Node4 -->
<g id="edge8" class="edge"><title>Node0&#45;&gt;Node4</title>
<path fill="none" stroke="midnightblue" d="M297.554,-50.1584C325.175,-43.7736 358.45,-36.0819 385.996,-29.7146"/>
<polygon fill="midnightblue" stroke="midnightblue" points="296.609,-46.7843 287.655,-52.4467 298.186,-53.6045 296.609,-46.7843"/>
</g>
</g>
</svg>
