<?xml version="1.0" encoding="UTF-8" standalone="no"?>
<!DOCTYPE svg PUBLIC "-//W3C//DTD SVG 1.1//EN"
 "http://www.w3.org/Graphics/SVG/1.1/DTD/svg11.dtd">
<!-- Generated by graphviz version 2.26.3 (20100126.1600)
 -->
<!-- Title: methods Pages: 1 -->
<svg width="584pt" height="76pt"
 viewBox="0.00 0.00 584.00 76.00" xmlns="http://www.w3.org/2000/svg" xmlns:xlink="http://www.w3.org/1999/xlink">
<g id="graph1" class="graph" transform="scale(1 1) rotate(0) translate(4 72)">
<title>methods</title>
<polygon fill="white" stroke="white" points="-4,5 -4,-72 581,-72 581,5 -4,5"/>
<g id="graph2" class="cluster"><title>clusterdir_704eb8350b43e1ca74c0f90ed1ba450e</title>
<a xlink:href="dir_704eb8350b43e1ca74c0f90ed1ba450e.html" target="_top">
<polygon fill="#eeeeff" stroke="black" points="8,-8 8,-60 568,-60 568,-8 8,-8"/>
</a>
</g>
<!-- dir_704eb8350b43e1ca74c0f90ed1ba450e -->
<g id="node2" class="node"><title>dir_704eb8350b43e1ca74c0f90ed1ba450e</title>
<text text-anchor="middle" x="531" y="-31.5" font-family="FreeSans.ttf" font-size="10.00">methods</text>
</g>
<!-- dir_834e55cf992733df24fbe86b49356157 -->
<g id="node3" class="node"><title>dir_834e55cf992733df24fbe86b49356157</title>
<a xlink:href="dir_834e55cf992733df24fbe86b49356157.html" target="_top" xlink:title="array_ops">
<polygon fill="white" stroke="red" points="484,-52 420,-52 420,-16 484,-16 484,-52"/>
<text text-anchor="middle" x="452" y="-31.5" font-family="FreeSans.ttf" font-size="10.00">array_ops</text>
</a>
</g>
<!-- dir_fbc4f2259ae1d6f6cc75298ebbd15532 -->
<g id="node4" class="node"><title>dir_fbc4f2259ae1d6f6cc75298ebbd15532</title>
<a xlink:href="dir_fbc4f2259ae1d6f6cc75298ebbd15532.html" target="_top" xlink:title="cart">
<polygon fill="white" stroke="red" points="402,-52 348,-52 348,-16 402,-16 402,-52"/>
<text text-anchor="middle" x="375" y="-31.5" font-family="FreeSans.ttf" font-size="10.00">cart</text>
</a>
</g>
<!-- dir_883e487a38cc988e0c441456a570d389 -->
<g id="node5" class="node"><title>dir_883e487a38cc988e0c441456a570d389</title>
<a xlink:href="dir_883e487a38cc988e0c441456a570d389.html" target="_top" xlink:title="kernel_machines">
<polygon fill="white" stroke="red" points="330,-52 232,-52 232,-16 330,-16 330,-52"/>
<text text-anchor="middle" x="281" y="-31.5" font-family="FreeSans.ttf" font-size="10.00">kernel_machines</text>
</a>
</g>
<!-- dir_cadc2f84a45765297e3de71a0990944f -->
<g id="node6" class="node"><title>dir_cadc2f84a45765297e3de71a0990944f</title>
<a xlink:href="dir_cadc2f84a45765297e3de71a0990944f.html" target="_top" xlink:title="plda">
<polygon fill="white" stroke="red" points="214,-52 160,-52 160,-16 214,-16 214,-52"/>
<text text-anchor="middle" x="187" y="-31.5" font-family="FreeSans.ttf" font-size="10.00">plda</text>
</a>
</g>
<!-- dir_b0d8a62e5a4314de84ce58e7cd249850 -->
<g id="node7" class="node"><title>dir_b0d8a62e5a4314de84ce58e7cd249850</title>
<a xlink:href="dir_b0d8a62e5a4314de84ce58e7cd249850.html" target="_top" xlink:title="sketch">
<polygon fill="white" stroke="red" points="142,-52 88,-52 88,-16 142,-16 142,-52"/>
<text text-anchor="middle" x="115" y="-31.5" font-family="FreeSans.ttf" font-size="10.00">sketch</text>
</a>
</g>
<!-- dir_87d2e9694998410c1b0408bb775833a4 -->
<g id="node8" class="node"><title>dir_87d2e9694998410c1b0408bb775833a4</title>
<a xlink:href="dir_87d2e9694998410c1b0408bb775833a4.html" target="_top" xlink:title="svec">
<polygon fill="white" stroke="red" points="70,-52 16,-52 16,-16 70,-16 70,-52"/>
<text text-anchor="middle" x="43" y="-31.5" font-family="FreeSans.ttf" font-size="10.00">svec</text>
</a>
</g>
</g>
</svg>
