<?xml version="1.0" encoding="UTF-8" standalone="no"?>
<!DOCTYPE svg PUBLIC "-//W3C//DTD SVG 1.1//EN"
 "http://www.w3.org/Graphics/SVG/1.1/DTD/svg11.dtd">
<!-- Generated by graphviz version 2.26.3 (20100126.1600)
 -->
<!-- Title: modules Pages: 1 -->
<svg width="1380pt" height="113pt"
 viewBox="0.00 0.00 1380.00 113.00" xmlns="http://www.w3.org/2000/svg" xmlns:xlink="http://www.w3.org/1999/xlink">
<g id="graph1" class="graph" transform="scale(1 1) rotate(0) translate(4 109)">
<title>modules</title>
<polygon fill="white" stroke="white" points="-4,5 -4,-109 1377,-109 1377,5 -4,5"/>
<g id="graph2" class="cluster"><title>clusterdir_a4a48839224ef8488facbffa8a397967</title>
<a xlink:href="dir_a4a48839224ef8488facbffa8a397967.html" target="_top" xlink:title="postgres">
<polygon fill="#ddddee" stroke="black" points="8,-8 8,-97 1364,-97 1364,-8 8,-8"/>
<text text-anchor="middle" x="686" y="-84" font-family="FreeSans.ttf" font-size="10.00">postgres</text>
</a>
</g>
<g id="graph3" class="cluster"><title>clusterdir_dc596537ad427a4d866006d1a3e1fe29</title>
<a xlink:href="dir_dc596537ad427a4d866006d1a3e1fe29.html" target="_top">
<polygon fill="#eeeeff" stroke="black" points="16,-16 16,-68 1356,-68 1356,-16 16,-16"/>
</a>
</g>
<!-- dir_dc596537ad427a4d866006d1a3e1fe29 -->
<g id="node3" class="node"><title>dir_dc596537ad427a4d866006d1a3e1fe29</title>
<text text-anchor="middle" x="1319" y="-39.5" font-family="FreeSans.ttf" font-size="10.00">modules</text>
</g>
<!-- dir_df86748cb94fb6c2fa09e991cce090c0 -->
<g id="node4" class="node"><title>dir_df86748cb94fb6c2fa09e991cce090c0</title>
<a xlink:href="dir_df86748cb94fb6c2fa09e991cce090c0.html" target="_top" xlink:title="assoc_rules">
<polygon fill="white" stroke="black" points="1272,-60 1198,-60 1198,-24 1272,-24 1272,-60"/>
<text text-anchor="middle" x="1235" y="-39.5" font-family="FreeSans.ttf" font-size="10.00">assoc_rules</text>
</a>
</g>
<!-- dir_3ee26ceeadb429f807bd6cd822eca1b9 -->
<g id="node5" class="node"><title>dir_3ee26ceeadb429f807bd6cd822eca1b9</title>
<a xlink:href="dir_3ee26ceeadb429f807bd6cd822eca1b9.html" target="_top" xlink:title="bayes">
<polygon fill="white" stroke="black" points="1180,-60 1126,-60 1126,-24 1180,-24 1180,-60"/>
<text text-anchor="middle" x="1153" y="-39.5" font-family="FreeSans.ttf" font-size="10.00">bayes</text>
</a>
</g>
<!-- dir_7668ab45ab1521840e6e151e43539dd4 -->
<g id="node6" class="node"><title>dir_7668ab45ab1521840e6e151e43539dd4</title>
<a xlink:href="dir_7668ab45ab1521840e6e151e43539dd4.html" target="_top" xlink:title="compatibility">
<polygon fill="white" stroke="black" points="1108,-60 1032,-60 1032,-24 1108,-24 1108,-60"/>
<text text-anchor="middle" x="1070" y="-39.5" font-family="FreeSans.ttf" font-size="10.00">compatibility</text>
</a>
</g>
<!-- dir_42e4eb27424bda9fbbfa95509de09bad -->
<g id="node7" class="node"><title>dir_42e4eb27424bda9fbbfa95509de09bad</title>
<a xlink:href="dir_42e4eb27424bda9fbbfa95509de09bad.html" target="_top" xlink:title="conjugate_gradient">
<polygon fill="white" stroke="black" points="1014,-60 906,-60 906,-24 1014,-24 1014,-60"/>
<text text-anchor="middle" x="960" y="-39.5" font-family="FreeSans.ttf" font-size="10.00">conjugate_gradient</text>
</a>
</g>
<!-- dir_93c42bb4df0f3e1302223b6dfd48c81e -->
<g id="node8" class="node"><title>dir_93c42bb4df0f3e1302223b6dfd48c81e</title>
<a xlink:href="dir_93c42bb4df0f3e1302223b6dfd48c81e.html" target="_top" xlink:title="convex">
<polygon fill="white" stroke="black" points="888,-60 834,-60 834,-24 888,-24 888,-60"/>
<text text-anchor="middle" x="861" y="-39.5" font-family="FreeSans.ttf" font-size="10.00">convex</text>
</a>
</g>
<!-- dir_70e9abe17564e15776adcab8550c7667 -->
<g id="node9" class="node"><title>dir_70e9abe17564e15776adcab8550c7667</title>
<a xlink:href="dir_70e9abe17564e15776adcab8550c7667.html" target="_top" xlink:title="crf">
<polygon fill="white" stroke="black" points="816,-60 762,-60 762,-24 816,-24 816,-60"/>
<text text-anchor="middle" x="789" y="-39.5" font-family="FreeSans.ttf" font-size="10.00">crf</text>
</a>
</g>
<!-- dir_b39ff06c8d4b923dddf798443565aaed -->
<g id="node10" class="node"><title>dir_b39ff06c8d4b923dddf798443565aaed</title>
<a xlink:href="dir_b39ff06c8d4b923dddf798443565aaed.html" target="_top" xlink:title="data_profile">
<polygon fill="white" stroke="black" points="744,-60 672,-60 672,-24 744,-24 744,-60"/>
<text text-anchor="middle" x="708" y="-39.5" font-family="FreeSans.ttf" font-size="10.00">data_profile</text>
</a>
</g>
<!-- dir_73ccba3aa44ce35463f879b4ebbd3f46 -->
<g id="node11" class="node"><title>dir_73ccba3aa44ce35463f879b4ebbd3f46</title>
<a xlink:href="dir_73ccba3aa44ce35463f879b4ebbd3f46.html" target="_top" xlink:title="kmeans">
<polygon fill="white" stroke="black" points="654,-60 600,-60 600,-24 654,-24 654,-60"/>
<text text-anchor="middle" x="627" y="-39.5" font-family="FreeSans.ttf" font-size="10.00">kmeans</text>
</a>
</g>
<!-- dir_9e42ee0a0235722f482630aa6cc99334 -->
<g id="node12" class="node"><title>dir_9e42ee0a0235722f482630aa6cc99334</title>
<a xlink:href="dir_9e42ee0a0235722f482630aa6cc99334.html" target="_top" xlink:title="linalg">
<polygon fill="white" stroke="black" points="582,-60 528,-60 528,-24 582,-24 582,-60"/>
<text text-anchor="middle" x="555" y="-39.5" font-family="FreeSans.ttf" font-size="10.00">linalg</text>
</a>
</g>
<!-- dir_8b8525adb4e4d2ae68fa3d70bbeff8da -->
<g id="node13" class="node"><title>dir_8b8525adb4e4d2ae68fa3d70bbeff8da</title>
<a xlink:href="dir_8b8525adb4e4d2ae68fa3d70bbeff8da.html" target="_top" xlink:title="prob">
<polygon fill="white" stroke="black" points="510,-60 456,-60 456,-24 510,-24 510,-60"/>
<text text-anchor="middle" x="483" y="-39.5" font-family="FreeSans.ttf" font-size="10.00">prob</text>
</a>
</g>
<!-- dir_68045f897311dcb3907add5fe80793a8 -->
<g id="node14" class="node"><title>dir_68045f897311dcb3907add5fe80793a8</title>
<a xlink:href="dir_68045f897311dcb3907add5fe80793a8.html" target="_top" xlink:title="quantile">
<polygon fill="white" stroke="black" points="438,-60 384,-60 384,-24 438,-24 438,-60"/>
<text text-anchor="middle" x="411" y="-39.5" font-family="FreeSans.ttf" font-size="10.00">quantile</text>
</a>
</g>
<!-- dir_ac52a4b89b7b1b1591f2952b5cbd041a -->
<g id="node15" class="node"><title>dir_ac52a4b89b7b1b1591f2952b5cbd041a</title>
<a xlink:href="dir_ac52a4b89b7b1b1591f2952b5cbd041a.html" target="_top" xlink:title="regress">
<polygon fill="white" stroke="black" points="366,-60 312,-60 312,-24 366,-24 366,-60"/>
<text text-anchor="middle" x="339" y="-39.5" font-family="FreeSans.ttf" font-size="10.00">regress</text>
</a>
</g>
<!-- dir_e6c126a997181663ba81c11cbf416bb1 -->
<g id="node16" class="node"><title>dir_e6c126a997181663ba81c11cbf416bb1</title>
<a xlink:href="dir_e6c126a997181663ba81c11cbf416bb1.html" target="_top" xlink:title="sample">
<polygon fill="white" stroke="black" points="294,-60 240,-60 240,-24 294,-24 294,-60"/>
<text text-anchor="middle" x="267" y="-39.5" font-family="FreeSans.ttf" font-size="10.00">sample</text>
</a>
</g>
<!-- dir_505cd743a8a717435eca324f49291a46 -->
<g id="node17" class="node"><title>dir_505cd743a8a717435eca324f49291a46</title>
<a xlink:href="dir_505cd743a8a717435eca324f49291a46.html" target="_top" xlink:title="stats">
<polygon fill="white" stroke="black" points="222,-60 168,-60 168,-24 222,-24 222,-60"/>
<text text-anchor="middle" x="195" y="-39.5" font-family="FreeSans.ttf" font-size="10.00">stats</text>
</a>
</g>
<!-- dir_40c4a35ef279220d890883d91e88ed32 -->
<g id="node18" class="node"><title>dir_40c4a35ef279220d890883d91e88ed32</title>
<a xlink:href="dir_40c4a35ef279220d890883d91e88ed32.html" target="_top" xlink:title="svd_mf">
<polygon fill="white" stroke="black" points="150,-60 96,-60 96,-24 150,-24 150,-60"/>
<text text-anchor="middle" x="123" y="-39.5" font-family="FreeSans.ttf" font-size="10.00">svd_mf</text>
</a>
</g>
<!-- dir_8d53e1c0026e7e34b4cd68f8b91426d6 -->
<g id="node19" class="node"><title>dir_8d53e1c0026e7e34b4cd68f8b91426d6</title>
<a xlink:href="dir_8d53e1c0026e7e34b4cd68f8b91426d6.html" target="_top" xlink:title="utilities">
<polygon fill="white" stroke="black" points="78,-60 24,-60 24,-24 78,-24 78,-60"/>
<text text-anchor="middle" x="51" y="-39.5" font-family="FreeSans.ttf" font-size="10.00">utilities</text>
</a>
</g>
</g>
</svg>
