<?xml version="1.0" encoding="UTF-8" standalone="no"?>
<!DOCTYPE svg PUBLIC "-//W3C//DTD SVG 1.1//EN"
 "http://www.w3.org/Graphics/SVG/1.1/DTD/svg11.dtd">
<!-- Generated by graphviz version 2.26.3 (20100126.1600)
 -->
<!-- Title: structs Pages: 1 -->
<svg width="392pt" height="30pt"
 viewBox="0.00 0.00 392.00 30.00" xmlns="http://www.w3.org/2000/svg" xmlns:xlink="http://www.w3.org/1999/xlink">
<g id="graph1" class="graph" transform="scale(1 1) rotate(0) translate(4 26)">
<title>structs</title>
<polygon fill="white" stroke="white" points="-4,5 -4,-26 389,-26 389,5 -4,5"/>
<!-- Node0 -->
<g id="node1" class="node"><title>Node0</title>
<polygon fill="#bfbfbf" stroke="black" points="132.5,-0.5 132.5,-21.5 211.5,-21.5 211.5,-0.5 132.5,-0.5"/>
<text text-anchor="middle" x="172" y="-8.5" font-family="FreeSans.ttf" font-size="10.00">Compatibility</text>
</g>
<!-- Node2 -->
<g id="node2" class="node"><title>Node2</title>
<a xlink:href="group__grp__gp__compat.html" target="_top" xlink:title="Greenplum Compatibility">
<polygon fill="white" stroke="black" points="248.5,-0.5 248.5,-21.5 383.5,-21.5 383.5,-0.5 248.5,-0.5"/>
<text text-anchor="middle" x="316" y="-8.5" font-family="FreeSans.ttf" font-size="10.00">Greenplum Compatibility</text>
</a>
</g>
<!-- Node0&#45;&gt;Node2 -->
<g id="edge4" class="edge"><title>Node0&#45;&gt;Node2</title>
<path fill="none" stroke="midnightblue" d="M221.924,-11C230.5,-11 239.539,-11 248.486,-11"/>
<polygon fill="midnightblue" stroke="midnightblue" points="221.73,-7.5001 211.73,-11 221.73,-14.5001 221.73,-7.5001"/>
</g>
<!-- Node1 -->
<g id="node3" class="node"><title>Node1</title>
<a xlink:href="group__grp__support.html" target="_top" xlink:title="Support Modules">
<polygon fill="white" stroke="black" points="0.5,-0.5 0.5,-21.5 95.5,-21.5 95.5,-0.5 0.5,-0.5"/>
<text text-anchor="middle" x="48" y="-8.5" font-family="FreeSans.ttf" font-size="10.00">Support Modules</text>
</a>
</g>
<!-- Node1&#45;&gt;Node0 -->
<g id="edge2" class="edge"><title>Node1&#45;&gt;Node0</title>
<path fill="none" stroke="midnightblue" d="M105.694,-11C114.728,-11 123.885,-11 132.393,-11"/>
<polygon fill="midnightblue" stroke="midnightblue" points="105.587,-7.5001 95.587,-11 105.587,-14.5001 105.587,-7.5001"/>
</g>
</g>
</svg>
