<?xml version="1.0" encoding="UTF-8" standalone="no"?>
<!DOCTYPE svg PUBLIC "-//W3C//DTD SVG 1.1//EN"
 "http://www.w3.org/Graphics/SVG/1.1/DTD/svg11.dtd">
<!-- Generated by graphviz version 2.26.3 (20100126.1600)
 -->
<!-- Title: structs Pages: 1 -->
<svg width="288pt" height="70pt"
 viewBox="0.00 0.00 288.00 70.00" xmlns="http://www.w3.org/2000/svg" xmlns:xlink="http://www.w3.org/1999/xlink">
<g id="graph1" class="graph" transform="scale(1 1) rotate(0) translate(4 66)">
<title>structs</title>
<polygon fill="white" stroke="white" points="-4,5 -4,-66 285,-66 285,5 -4,5"/>
<!-- Node2 -->
<g id="node1" class="node"><title>Node2</title>
<a xlink:href="group__grp__pca__project.html" target="_top" xlink:title="PCA Projection">
<polygon fill="white" stroke="black" points="194,-40.5 194,-61.5 280,-61.5 280,-40.5 194,-40.5"/>
<text text-anchor="middle" x="237" y="-48.5" font-family="FreeSans.ttf" font-size="10.00">PCA Projection</text>
</a>
</g>
<!-- Node0 -->
<g id="node2" class="node"><title>Node0</title>
<polygon fill="#bfbfbf" stroke="black" points="0,-20.5 0,-41.5 158,-41.5 158,-20.5 0,-20.5"/>
<text text-anchor="middle" x="79" y="-28.5" font-family="FreeSans.ttf" font-size="10.00">Principal Component Analysis</text>
</g>
<!-- Node0&#45;&gt;Node2 -->
<g id="edge4" class="edge"><title>Node0&#45;&gt;Node2</title>
<path fill="none" stroke="midnightblue" d="M168.396,-42.316C177.15,-43.424 185.73,-44.5101 193.697,-45.5186"/>
<polygon fill="midnightblue" stroke="midnightblue" points="168.823,-38.8422 158.463,-41.0586 167.944,-45.7868 168.823,-38.8422"/>
</g>
<!-- Node1 -->
<g id="node3" class="node"><title>Node1</title>
<a xlink:href="group__grp__pca__train.html" target="_top" xlink:title="PCA Training">
<polygon fill="white" stroke="black" points="198.5,-0.5 198.5,-21.5 275.5,-21.5 275.5,-0.5 198.5,-0.5"/>
<text text-anchor="middle" x="237" y="-8.5" font-family="FreeSans.ttf" font-size="10.00">PCA Training</text>
</a>
</g>
<!-- Node0&#45;&gt;Node1 -->
<g id="edge2" class="edge"><title>Node0&#45;&gt;Node1</title>
<path fill="none" stroke="midnightblue" d="M168.485,-19.6727C178.885,-18.3563 189.039,-17.0711 198.207,-15.9106"/>
<polygon fill="midnightblue" stroke="midnightblue" points="167.944,-16.2132 158.463,-20.9414 168.823,-23.1578 167.944,-16.2132"/>
</g>
</g>
</svg>
