<?xml version="1.0" encoding="UTF-8" standalone="no"?>
<!DOCTYPE svg PUBLIC "-//W3C//DTD SVG 1.1//EN"
 "http://www.w3.org/Graphics/SVG/1.1/DTD/svg11.dtd">
<!-- Generated by graphviz version 2.26.3 (20100126.1600)
 -->
<!-- Title: Sketch&#45;based Estimators Pages: 1 -->
<svg width="522pt" height="122pt"
 viewBox="0.00 0.00 522.00 122.00" xmlns="http://www.w3.org/2000/svg" xmlns:xlink="http://www.w3.org/1999/xlink">
<g id="graph1" class="graph" transform="scale(1 1) rotate(0) translate(4 118)">
<title>Sketch&#45;based Estimators</title>
<polygon fill="white" stroke="white" points="-4,5 -4,-118 519,-118 519,5 -4,5"/>
<!-- Node3 -->
<g id="node1" class="node"><title>Node3</title>
<a xlink:href="group__grp__fmsketch.html" target="_top" xlink:title="FM (Flajolet&#45;Martin)">
<polygon fill="white" stroke="black" points="366.5,-92.5 366.5,-113.5 471.5,-113.5 471.5,-92.5 366.5,-92.5"/>
<text text-anchor="middle" x="419" y="-100.5" font-family="FreeSans.ttf" font-size="10.00">FM (Flajolet&#45;Martin)</text>
</a>
</g>
<!-- Node1 -->
<g id="node2" class="node"><title>Node1</title>
<a xlink:href="group__grp__desc__stats.html" target="_top" xlink:title="Descriptive Statistics">
<polygon fill="white" stroke="black" points="0,-52.5 0,-73.5 116,-73.5 116,-52.5 0,-52.5"/>
<text text-anchor="middle" x="58" y="-60.5" font-family="FreeSans.ttf" font-size="10.00">Descriptive Statistics</text>
</a>
</g>
<!-- Node0 -->
<g id="node4" class="node"><title>Node0</title>
<polygon fill="#bfbfbf" stroke="black" points="152.5,-52.5 152.5,-73.5 287.5,-73.5 287.5,-52.5 152.5,-52.5"/>
<text text-anchor="middle" x="220" y="-60.5" font-family="FreeSans.ttf" font-size="10.00">Sketch&#45;based Estimators</text>
</g>
<!-- Node1&#45;&gt;Node0 -->
<g id="edge2" class="edge"><title>Node1&#45;&gt;Node0</title>
<path fill="none" stroke="midnightblue" d="M126.13,-63C134.836,-63 143.746,-63 152.443,-63"/>
<polygon fill="midnightblue" stroke="midnightblue" points="126.028,-59.5001 116.028,-63 126.028,-66.5001 126.028,-59.5001"/>
</g>
<!-- Node2 -->
<g id="node3" class="node"><title>Node2</title>
<a xlink:href="group__grp__countmin.html" target="_top" xlink:title="CountMin (Cormode&#45;Muthukrishnan)">
<polygon fill="white" stroke="black" points="324.5,-52.5 324.5,-73.5 513.5,-73.5 513.5,-52.5 324.5,-52.5"/>
<text text-anchor="middle" x="419" y="-60.5" font-family="FreeSans.ttf" font-size="10.00">CountMin (Cormode&#45;Muthukrishnan)</text>
</a>
</g>
<!-- Node0&#45;&gt;Node3 -->
<g id="edge6" class="edge"><title>Node0&#45;&gt;Node3</title>
<path fill="none" stroke="midnightblue" d="M282.436,-75.55C309.523,-80.9946 340.885,-87.2986 366.719,-92.4913"/>
<polygon fill="midnightblue" stroke="midnightblue" points="282.779,-72.0489 272.285,-73.5095 281.399,-78.9116 282.779,-72.0489"/>
</g>
<!-- Node0&#45;&gt;Node2 -->
<g id="edge4" class="edge"><title>Node0&#45;&gt;Node2</title>
<path fill="none" stroke="midnightblue" d="M297.775,-63C306.506,-63 315.472,-63 324.385,-63"/>
<polygon fill="midnightblue" stroke="midnightblue" points="297.65,-59.5001 287.65,-63 297.65,-66.5001 297.65,-59.5001"/>
</g>
<!-- Node4 -->
<g id="node5" class="node"><title>Node4</title>
<a xlink:href="group__grp__mfvsketch.html" target="_top" xlink:title="MFV (Most Frequent\l Values)">
<polygon fill="white" stroke="black" points="364,-0 364,-34 474,-34 474,-0 364,-0"/>
<text text-anchor="start" x="372" y="-21" font-family="FreeSans.ttf" font-size="10.00">MFV (Most Frequent</text>
<text text-anchor="middle" x="419" y="-8" font-family="FreeSans.ttf" font-size="10.00"> Values)</text>
</a>
</g>
<!-- Node0&#45;&gt;Node4 -->
<g id="edge8" class="edge"><title>Node0&#45;&gt;Node4</title>
<path fill="none" stroke="midnightblue" d="M275.554,-50.1584C303.175,-43.7736 336.45,-36.0819 363.996,-29.7146"/>
<polygon fill="midnightblue" stroke="midnightblue" points="274.609,-46.7843 265.655,-52.4467 276.186,-53.6045 274.609,-46.7843"/>
</g>
</g>
</svg>
