<?xml version="1.0" encoding="UTF-8" standalone="no"?>
<!DOCTYPE svg PUBLIC "-//W3C//DTD SVG 1.1//EN"
 "http://www.w3.org/Graphics/SVG/1.1/DTD/svg11.dtd">
<!-- Generated by graphviz version 2.26.3 (20100126.1600)
 -->
<!-- Title: Supervised Learning Pages: 1 -->
<svg width="422pt" height="386pt"
 viewBox="0.00 0.00 422.00 386.00" xmlns="http://www.w3.org/2000/svg" xmlns:xlink="http://www.w3.org/1999/xlink">
<g id="graph1" class="graph" transform="scale(1 1) rotate(0) translate(4 382)">
<title>Supervised Learning</title>
<polygon fill="white" stroke="white" points="-4,5 -4,-382 419,-382 419,5 -4,5"/>
<!-- Node5 -->
<g id="node1" class="node"><title>Node5</title>
<a xlink:href="group__grp__mlogreg.html" target="_top" xlink:title="Multinomial Logistic\l Regression">
<polygon fill="white" stroke="black" points="287.5,-344 287.5,-378 396.5,-378 396.5,-344 287.5,-344"/>
<text text-anchor="start" x="295.5" y="-365" font-family="FreeSans.ttf" font-size="10.00">Multinomial Logistic</text>
<text text-anchor="middle" x="342" y="-352" font-family="FreeSans.ttf" font-size="10.00"> Regression</text>
</a>
</g>
<!-- Node9 -->
<g id="node2" class="node"><title>Node9</title>
<a xlink:href="group__grp__cox__prop__hazards.html" target="_top" xlink:title="Cox&#45;Proportional Hazards\l Regression">
<polygon fill="white" stroke="black" points="272.5,-292 272.5,-326 411.5,-326 411.5,-292 272.5,-292"/>
<text text-anchor="start" x="280.5" y="-313" font-family="FreeSans.ttf" font-size="10.00">Cox&#45;Proportional Hazards</text>
<text text-anchor="middle" x="342" y="-300" font-family="FreeSans.ttf" font-size="10.00"> Regression</text>
</a>
</g>
<!-- Node7 -->
<g id="node3" class="node"><title>Node7</title>
<a xlink:href="group__grp__rf.html" target="_top" xlink:title="Random Forest">
<polygon fill="white" stroke="black" points="297.5,-252.5 297.5,-273.5 386.5,-273.5 386.5,-252.5 297.5,-252.5"/>
<text text-anchor="middle" x="342" y="-260.5" font-family="FreeSans.ttf" font-size="10.00">Random Forest</text>
</a>
</g>
<!-- Node1 -->
<g id="node4" class="node"><title>Node1</title>
<a xlink:href="group__grp__modeling.html" target="_top" xlink:title="Data Modeling">
<polygon fill="white" stroke="black" points="0,-172.5 0,-193.5 84,-193.5 84,-172.5 0,-172.5"/>
<text text-anchor="middle" x="42" y="-180.5" font-family="FreeSans.ttf" font-size="10.00">Data Modeling</text>
</a>
</g>
<!-- Node0 -->
<g id="node10" class="node"><title>Node0</title>
<polygon fill="#bfbfbf" stroke="black" points="120,-172.5 120,-193.5 234,-193.5 234,-172.5 120,-172.5"/>
<text text-anchor="middle" x="177" y="-180.5" font-family="FreeSans.ttf" font-size="10.00">Supervised Learning</text>
</g>
<!-- Node1&#45;&gt;Node0 -->
<g id="edge2" class="edge"><title>Node1&#45;&gt;Node0</title>
<path fill="none" stroke="midnightblue" d="M94.372,-183C102.757,-183 111.47,-183 119.957,-183"/>
<polygon fill="midnightblue" stroke="midnightblue" points="94.3445,-179.5 84.3444,-183 94.3444,-186.5 94.3445,-179.5"/>
</g>
<!-- Node8 -->
<g id="node5" class="node"><title>Node8</title>
<a xlink:href="group__grp__kernmach.html" target="_top" xlink:title="Support Vector Machines">
<polygon fill="white" stroke="black" points="274.5,-212.5 274.5,-233.5 409.5,-233.5 409.5,-212.5 274.5,-212.5"/>
<text text-anchor="middle" x="342" y="-220.5" font-family="FreeSans.ttf" font-size="10.00">Support Vector Machines</text>
</a>
</g>
<!-- Node6 -->
<g id="node6" class="node"><title>Node6</title>
<a xlink:href="group__grp__dectree.html" target="_top" xlink:title="Decision Tree">
<polygon fill="white" stroke="black" points="301,-172.5 301,-193.5 383,-193.5 383,-172.5 301,-172.5"/>
<text text-anchor="middle" x="342" y="-180.5" font-family="FreeSans.ttf" font-size="10.00">Decision Tree</text>
</a>
</g>
<!-- Node2 -->
<g id="node7" class="node"><title>Node2</title>
<a xlink:href="group__grp__bayes.html" target="_top" xlink:title="Naive Bayes Classification">
<polygon fill="white" stroke="black" points="270.5,-132.5 270.5,-153.5 413.5,-153.5 413.5,-132.5 270.5,-132.5"/>
<text text-anchor="middle" x="342" y="-140.5" font-family="FreeSans.ttf" font-size="10.00">Naive Bayes Classification</text>
</a>
</g>
<!-- Node4 -->
<g id="node8" class="node"><title>Node4</title>
<a xlink:href="group__grp__logreg.html" target="_top" xlink:title="Logistic Regression">
<polygon fill="white" stroke="black" points="287.5,-92.5 287.5,-113.5 396.5,-113.5 396.5,-92.5 287.5,-92.5"/>
<text text-anchor="middle" x="342" y="-100.5" font-family="FreeSans.ttf" font-size="10.00">Logistic Regression</text>
</a>
</g>
<!-- Node3 -->
<g id="node9" class="node"><title>Node3</title>
<a xlink:href="group__grp__linreg.html" target="_top" xlink:title="Linear Regression">
<polygon fill="white" stroke="black" points="291,-52.5 291,-73.5 393,-73.5 393,-52.5 291,-52.5"/>
<text text-anchor="middle" x="342" y="-60.5" font-family="FreeSans.ttf" font-size="10.00">Linear Regression</text>
</a>
</g>
<!-- Node0&#45;&gt;Node5 -->
<g id="edge10" class="edge"><title>Node0&#45;&gt;Node5</title>
<path fill="none" stroke="midnightblue" d="M184.242,-203.202C196.806,-235.504 225.628,-298.814 270,-335 275.15,-339.2 281.034,-342.751 287.17,-345.746"/>
<polygon fill="midnightblue" stroke="midnightblue" points="187.398,-201.651 180.605,-193.521 180.845,-204.113 187.398,-201.651"/>
</g>
<!-- Node0&#45;&gt;Node9 -->
<g id="edge18" class="edge"><title>Node0&#45;&gt;Node9</title>
<path fill="none" stroke="midnightblue" d="M190.159,-201.895C206.53,-224.13 236.451,-260.823 270,-283 274.989,-286.298 280.449,-289.24 286.06,-291.849"/>
<polygon fill="midnightblue" stroke="midnightblue" points="192.873,-199.674 184.189,-193.603 187.192,-203.764 192.873,-199.674"/>
</g>
<!-- Node0&#45;&gt;Node7 -->
<g id="edge14" class="edge"><title>Node0&#45;&gt;Node7</title>
<path fill="none" stroke="midnightblue" d="M198.591,-199.627C216.782,-212.954 243.939,-231.301 270,-243 278.64,-246.879 288.207,-250.171 297.47,-252.897"/>
<polygon fill="midnightblue" stroke="midnightblue" points="200.535,-196.71 190.426,-193.538 196.35,-202.322 200.535,-196.71"/>
</g>
<!-- Node0&#45;&gt;Node8 -->
<g id="edge16" class="edge"><title>Node0&#45;&gt;Node8</title>
<path fill="none" stroke="midnightblue" d="M230.258,-195.911C252.371,-201.272 277.703,-207.413 298.652,-212.491"/>
<polygon fill="midnightblue" stroke="midnightblue" points="230.895,-192.464 220.352,-193.51 229.246,-199.267 230.895,-192.464"/>
</g>
<!-- Node0&#45;&gt;Node6 -->
<g id="edge12" class="edge"><title>Node0&#45;&gt;Node6</title>
<path fill="none" stroke="midnightblue" d="M244.444,-183C263.607,-183 283.892,-183 300.972,-183"/>
<polygon fill="midnightblue" stroke="midnightblue" points="244.246,-179.5 234.246,-183 244.246,-186.5 244.246,-179.5"/>
</g>
<!-- Node0&#45;&gt;Node2 -->
<g id="edge4" class="edge"><title>Node0&#45;&gt;Node2</title>
<path fill="none" stroke="midnightblue" d="M230.258,-170.089C252.371,-164.728 277.703,-158.587 298.652,-153.509"/>
<polygon fill="midnightblue" stroke="midnightblue" points="229.246,-166.733 220.352,-172.49 230.895,-173.536 229.246,-166.733"/>
</g>
<!-- Node0&#45;&gt;Node4 -->
<g id="edge8" class="edge"><title>Node0&#45;&gt;Node4</title>
<path fill="none" stroke="midnightblue" d="M198.591,-166.373C216.782,-153.046 243.939,-134.699 270,-123 278.166,-119.334 287.161,-116.191 295.945,-113.556"/>
<polygon fill="midnightblue" stroke="midnightblue" points="196.35,-163.678 190.426,-172.462 200.535,-169.29 196.35,-163.678"/>
</g>
<!-- Node0&#45;&gt;Node3 -->
<g id="edge6" class="edge"><title>Node0&#45;&gt;Node3</title>
<path fill="none" stroke="midnightblue" d="M189.631,-164.018C205.673,-141.389 235.459,-104.002 270,-83 276.429,-79.0908 283.641,-75.9263 290.951,-73.3698"/>
<polygon fill="midnightblue" stroke="midnightblue" points="186.611,-162.232 183.807,-172.449 192.37,-166.211 186.611,-162.232"/>
</g>
<!-- Node10 -->
<g id="node11" class="node"><title>Node10</title>
<a xlink:href="group__grp__crf.html" target="_top" xlink:title="Conditional Random\l Field">
<polygon fill="white" stroke="black" points="285.5,-0 285.5,-34 398.5,-34 398.5,-0 285.5,-0"/>
<text text-anchor="start" x="293.5" y="-21" font-family="FreeSans.ttf" font-size="10.00">Conditional Random</text>
<text text-anchor="middle" x="342" y="-8" font-family="FreeSans.ttf" font-size="10.00"> Field</text>
</a>
</g>
<!-- Node0&#45;&gt;Node10 -->
<g id="edge20" class="edge"><title>Node0&#45;&gt;Node10</title>
<path fill="none" stroke="midnightblue" d="M185.44,-162.684C198.976,-132.461 228.32,-75.7167 270,-43 274.704,-39.3074 279.98,-36.1095 285.48,-33.3467"/>
<polygon fill="midnightblue" stroke="midnightblue" points="182.087,-161.619 181.317,-172.186 188.508,-164.405 182.087,-161.619"/>
</g>
</g>
</svg>
