<?xml version="1.0" encoding="UTF-8" standalone="no"?>
<!DOCTYPE svg PUBLIC "-//W3C//DTD SVG 1.1//EN"
 "http://www.w3.org/Graphics/SVG/1.1/DTD/svg11.dtd">
<!-- Generated by graphviz version 2.26.3 (20100126.1600)
 -->
<!-- Title: Unsupervised Learning Pages: 1 -->
<svg width="446pt" height="202pt"
 viewBox="0.00 0.00 446.00 202.00" xmlns="http://www.w3.org/2000/svg" xmlns:xlink="http://www.w3.org/1999/xlink">
<g id="graph1" class="graph" transform="scale(1 1) rotate(0) translate(4 198)">
<title>Unsupervised Learning</title>
<polygon fill="white" stroke="white" points="-4,5 -4,-198 443,-198 443,5 -4,5"/>
<!-- Node2 -->
<g id="node1" class="node"><title>Node2</title>
<a xlink:href="group__grp__assoc__rules.html" target="_top" xlink:title="Association Rules">
<polygon fill="white" stroke="black" points="309.5,-172.5 309.5,-193.5 410.5,-193.5 410.5,-172.5 309.5,-172.5"/>
<text text-anchor="middle" x="360" y="-180.5" font-family="FreeSans.ttf" font-size="10.00">Association Rules</text>
</a>
</g>
<!-- Node1 -->
<g id="node2" class="node"><title>Node1</title>
<a xlink:href="group__grp__modeling.html" target="_top" xlink:title="Data Modeling">
<polygon fill="white" stroke="black" points="0,-86.5 0,-107.5 84,-107.5 84,-86.5 0,-86.5"/>
<text text-anchor="middle" x="42" y="-94.5" font-family="FreeSans.ttf" font-size="10.00">Data Modeling</text>
</a>
</g>
<!-- Node0 -->
<g id="node3" class="node"><title>Node0</title>
<polygon fill="#bfbfbf" stroke="black" points="120,-86.5 120,-107.5 246,-107.5 246,-86.5 120,-86.5"/>
<text text-anchor="middle" x="183" y="-94.5" font-family="FreeSans.ttf" font-size="10.00">Unsupervised Learning</text>
</g>
<!-- Node1&#45;&gt;Node0 -->
<g id="edge2" class="edge"><title>Node1&#45;&gt;Node0</title>
<path fill="none" stroke="midnightblue" d="M94.5375,-97C102.794,-97 111.403,-97 119.869,-97"/>
<polygon fill="midnightblue" stroke="midnightblue" points="94.3047,-93.5001 84.3046,-97 94.3046,-100.5 94.3047,-93.5001"/>
</g>
<!-- Node0&#45;&gt;Node2 -->
<g id="edge4" class="edge"><title>Node0&#45;&gt;Node2</title>
<path fill="none" stroke="midnightblue" d="M203.979,-114.06C223.22,-128.931 253.043,-150.086 282,-163 290.554,-166.815 299.974,-170.003 309.219,-172.631"/>
<polygon fill="midnightblue" stroke="midnightblue" points="205.948,-111.156 195.925,-107.722 201.619,-116.657 205.948,-111.156"/>
</g>
<!-- Node5 -->
<g id="node4" class="node"><title>Node5</title>
<a xlink:href="group__grp__svdmf.html" target="_top" xlink:title="SVD Matrix Factorisation">
<polygon fill="white" stroke="black" points="294.5,-132.5 294.5,-153.5 425.5,-153.5 425.5,-132.5 294.5,-132.5"/>
<text text-anchor="middle" x="360" y="-140.5" font-family="FreeSans.ttf" font-size="10.00">SVD Matrix Factorisation</text>
</a>
</g>
<!-- Node0&#45;&gt;Node5 -->
<g id="edge10" class="edge"><title>Node0&#45;&gt;Node5</title>
<path fill="none" stroke="midnightblue" d="M232.996,-110.191C248.678,-114.312 266.056,-118.862 282,-123 293.908,-126.09 306.846,-129.419 318.699,-132.458"/>
<polygon fill="midnightblue" stroke="midnightblue" points="233.528,-106.712 222.967,-107.553 231.748,-113.482 233.528,-106.712"/>
</g>
<!-- Node6 -->
<g id="node5" class="node"><title>Node6</title>
<a xlink:href="group__grp__plda.html" target="_top" xlink:title="Parallel Latent Dirichlet\l Allocation">
<polygon fill="white" stroke="black" points="297.5,-80 297.5,-114 422.5,-114 422.5,-80 297.5,-80"/>
<text text-anchor="start" x="305.5" y="-101" font-family="FreeSans.ttf" font-size="10.00">Parallel Latent Dirichlet</text>
<text text-anchor="middle" x="360" y="-88" font-family="FreeSans.ttf" font-size="10.00"> Allocation</text>
</a>
</g>
<!-- Node0&#45;&gt;Node6 -->
<g id="edge12" class="edge"><title>Node0&#45;&gt;Node6</title>
<path fill="none" stroke="midnightblue" d="M256.632,-97C270.162,-97 284.169,-97 297.339,-97"/>
<polygon fill="midnightblue" stroke="midnightblue" points="256.401,-93.5001 246.401,-97 256.401,-100.5 256.401,-93.5001"/>
</g>
<!-- Node3 -->
<g id="node6" class="node"><title>Node3</title>
<a xlink:href="group__grp__kmeans.html" target="_top" xlink:title="k&#45;Means Clustering">
<polygon fill="white" stroke="black" points="306.5,-40.5 306.5,-61.5 413.5,-61.5 413.5,-40.5 306.5,-40.5"/>
<text text-anchor="middle" x="360" y="-48.5" font-family="FreeSans.ttf" font-size="10.00">k&#45;Means Clustering</text>
</a>
</g>
<!-- Node0&#45;&gt;Node3 -->
<g id="edge6" class="edge"><title>Node0&#45;&gt;Node3</title>
<path fill="none" stroke="midnightblue" d="M232.996,-83.8092C248.678,-79.6879 266.056,-75.1378 282,-71 293.908,-67.9098 306.846,-64.5808 318.699,-61.5423"/>
<polygon fill="midnightblue" stroke="midnightblue" points="231.748,-80.5184 222.967,-86.447 233.528,-87.2881 231.748,-80.5184"/>
</g>
<!-- Node4 -->
<g id="node7" class="node"><title>Node4</title>
<a xlink:href="group__grp__lmf.html" target="_top" xlink:title="Low&#45;rank Matrix Factorization">
<polygon fill="white" stroke="black" points="282,-0.5 282,-21.5 438,-21.5 438,-0.5 282,-0.5"/>
<text text-anchor="middle" x="360" y="-8.5" font-family="FreeSans.ttf" font-size="10.00">Low&#45;rank Matrix Factorization</text>
</a>
</g>
<!-- Node0&#45;&gt;Node4 -->
<g id="edge8" class="edge"><title>Node0&#45;&gt;Node4</title>
<path fill="none" stroke="midnightblue" d="M203.979,-79.9399C223.22,-65.069 253.043,-43.9143 282,-31 290.299,-27.2989 299.412,-24.1879 308.391,-21.6059"/>
<polygon fill="midnightblue" stroke="midnightblue" points="201.619,-77.3435 195.925,-86.2781 205.948,-82.8445 201.619,-77.3435"/>
</g>
</g>
</svg>
