<?xml version="1.0" encoding="UTF-8" standalone="no"?>
<!DOCTYPE svg PUBLIC "-//W3C//DTD SVG 1.1//EN"
 "http://www.w3.org/Graphics/SVG/1.1/DTD/svg11.dtd">
<!-- Generated by graphviz version 2.26.3 (20100126.1600)
 -->
<!-- Title: structs Pages: 1 -->
<svg width="384pt" height="310pt"
 viewBox="0.00 0.00 384.00 310.00" xmlns="http://www.w3.org/2000/svg" xmlns:xlink="http://www.w3.org/1999/xlink">
<g id="graph1" class="graph" transform="scale(1 1) rotate(0) translate(4 306)">
<title>structs</title>
<polygon fill="white" stroke="white" points="-4,5 -4,-306 381,-306 381,5 -4,5"/>
<!-- Node3 -->
<g id="node1" class="node"><title>Node3</title>
<a xlink:href="group__grp__mlogreg.html" target="_top" xlink:title="Multinomial Logistic Regression">
<polygon fill="white" stroke="black" points="195.5,-280.5 195.5,-301.5 360.5,-301.5 360.5,-280.5 195.5,-280.5"/>
<text text-anchor="middle" x="278" y="-288.5" font-family="FreeSans.ttf" font-size="10.00">Multinomial Logistic Regression</text>
</a>
</g>
<!-- Node5 -->
<g id="node2" class="node"><title>Node5</title>
<a xlink:href="group__grp__cox__prop__hazards.html" target="_top" xlink:title="Cox&#45;Proportional Hazards Regression">
<polygon fill="white" stroke="black" points="180.5,-240.5 180.5,-261.5 375.5,-261.5 375.5,-240.5 180.5,-240.5"/>
<text text-anchor="middle" x="278" y="-248.5" font-family="FreeSans.ttf" font-size="10.00">Cox&#45;Proportional Hazards Regression</text>
</a>
</g>
<!-- Node6 -->
<g id="node3" class="node"><title>Node6</title>
<a xlink:href="group__grp__robust.html" target="_top" xlink:title="Huber White Variance">
<polygon fill="white" stroke="black" points="218,-200.5 218,-221.5 338,-221.5 338,-200.5 218,-200.5"/>
<text text-anchor="middle" x="278" y="-208.5" font-family="FreeSans.ttf" font-size="10.00">Huber White Variance</text>
</a>
</g>
<!-- Node7 -->
<g id="node4" class="node"><title>Node7</title>
<a xlink:href="group__grp__clustered__errors.html" target="_top" xlink:title="Clustered Variance">
<polygon fill="white" stroke="black" points="224.5,-160.5 224.5,-181.5 331.5,-181.5 331.5,-160.5 224.5,-160.5"/>
<text text-anchor="middle" x="278" y="-168.5" font-family="FreeSans.ttf" font-size="10.00">Clustered Variance</text>
</a>
</g>
<!-- Node8 -->
<g id="node5" class="node"><title>Node8</title>
<a xlink:href="group__grp__marginal.html" target="_top" xlink:title="Marginal Effects">
<polygon fill="white" stroke="black" points="231.5,-120.5 231.5,-141.5 324.5,-141.5 324.5,-120.5 231.5,-120.5"/>
<text text-anchor="middle" x="278" y="-128.5" font-family="FreeSans.ttf" font-size="10.00">Marginal Effects</text>
</a>
</g>
<!-- Node2 -->
<g id="node6" class="node"><title>Node2</title>
<a xlink:href="group__grp__logreg.html" target="_top" xlink:title="Logistic Regression">
<polygon fill="white" stroke="black" points="223.5,-80.5 223.5,-101.5 332.5,-101.5 332.5,-80.5 223.5,-80.5"/>
<text text-anchor="middle" x="278" y="-88.5" font-family="FreeSans.ttf" font-size="10.00">Logistic Regression</text>
</a>
</g>
<!-- Node4 -->
<g id="node7" class="node"><title>Node4</title>
<a xlink:href="group__grp__elasticnet.html" target="_top" xlink:title="Elastic Net Regularization">
<polygon fill="white" stroke="black" points="209.5,-40.5 209.5,-61.5 346.5,-61.5 346.5,-40.5 209.5,-40.5"/>
<text text-anchor="middle" x="278" y="-48.5" font-family="FreeSans.ttf" font-size="10.00">Elastic Net Regularization</text>
</a>
</g>
<!-- Node1 -->
<g id="node8" class="node"><title>Node1</title>
<a xlink:href="group__grp__linreg.html" target="_top" xlink:title="Linear Regression">
<polygon fill="white" stroke="black" points="227,-0.5 227,-21.5 329,-21.5 329,-0.5 227,-0.5"/>
<text text-anchor="middle" x="278" y="-8.5" font-family="FreeSans.ttf" font-size="10.00">Linear Regression</text>
</a>
</g>
<!-- Node0 -->
<g id="node9" class="node"><title>Node0</title>
<polygon fill="#bfbfbf" stroke="black" points="0.5,-140.5 0.5,-161.5 143.5,-161.5 143.5,-140.5 0.5,-140.5"/>
<text text-anchor="middle" x="72" y="-148.5" font-family="FreeSans.ttf" font-size="10.00">Generalized Linear Models</text>
</g>
<!-- Node0&#45;&gt;Node3 -->
<g id="edge6" class="edge"><title>Node0&#45;&gt;Node3</title>
<path fill="none" stroke="midnightblue" d="M83.6425,-170.319C101.038,-197.395 136.475,-246.099 180,-271 186.707,-274.837 194.044,-277.945 201.588,-280.46"/>
<polygon fill="midnightblue" stroke="midnightblue" points="86.531,-168.337 78.258,-161.718 80.5978,-172.052 86.531,-168.337"/>
</g>
<!-- Node0&#45;&gt;Node5 -->
<g id="edge10" class="edge"><title>Node0&#45;&gt;Node5</title>
<path fill="none" stroke="midnightblue" d="M90.4725,-168.709C110.776,-187.148 145.161,-215.466 180,-231 188.643,-234.854 198.048,-237.974 207.498,-240.497"/>
<polygon fill="midnightblue" stroke="midnightblue" points="92.6318,-165.938 82.9177,-161.709 87.8742,-171.073 92.6318,-165.938"/>
</g>
<!-- Node0&#45;&gt;Node6 -->
<g id="edge12" class="edge"><title>Node0&#45;&gt;Node6</title>
<path fill="none" stroke="midnightblue" d="M106.816,-165.444C127.76,-173.743 155.103,-183.894 180,-191 192.44,-194.55 205.939,-197.728 218.827,-200.449"/>
<polygon fill="midnightblue" stroke="midnightblue" points="107.966,-162.135 97.3813,-161.661 105.36,-168.632 107.966,-162.135"/>
</g>
<!-- Node0&#45;&gt;Node7 -->
<g id="edge14" class="edge"><title>Node0&#45;&gt;Node7</title>
<path fill="none" stroke="midnightblue" d="M153.815,-158.943C177.536,-161.246 202.825,-163.701 224.349,-165.791"/>
<polygon fill="midnightblue" stroke="midnightblue" points="154.051,-155.45 143.76,-157.967 153.375,-162.417 154.051,-155.45"/>
</g>
<!-- Node0&#45;&gt;Node8 -->
<g id="edge16" class="edge"><title>Node0&#45;&gt;Node8</title>
<path fill="none" stroke="midnightblue" d="M153.75,-143.063C180.106,-140.504 208.403,-137.757 231.325,-135.532"/>
<polygon fill="midnightblue" stroke="midnightblue" points="153.375,-139.583 143.76,-144.033 154.051,-146.55 153.375,-139.583"/>
</g>
<!-- Node0&#45;&gt;Node2 -->
<g id="edge4" class="edge"><title>Node0&#45;&gt;Node2</title>
<path fill="none" stroke="midnightblue" d="M106.816,-136.556C127.76,-128.257 155.103,-118.106 180,-111 193.943,-107.021 209.216,-103.51 223.469,-100.584"/>
<polygon fill="midnightblue" stroke="midnightblue" points="105.36,-133.368 97.3813,-140.339 107.966,-139.865 105.36,-133.368"/>
</g>
<!-- Node0&#45;&gt;Node4 -->
<g id="edge8" class="edge"><title>Node0&#45;&gt;Node4</title>
<path fill="none" stroke="midnightblue" d="M90.4725,-133.291C110.776,-114.852 145.161,-86.5344 180,-71 189.198,-66.8985 199.259,-63.6288 209.32,-61.0247"/>
<polygon fill="midnightblue" stroke="midnightblue" points="87.8742,-130.927 82.9177,-140.291 92.6318,-136.062 87.8742,-130.927"/>
</g>
<!-- Node0&#45;&gt;Node1 -->
<g id="edge2" class="edge"><title>Node0&#45;&gt;Node1</title>
<path fill="none" stroke="midnightblue" d="M83.6425,-131.681C101.038,-104.605 136.475,-55.9006 180,-31 194.168,-22.8945 211.144,-18.045 226.957,-15.1531"/>
<polygon fill="midnightblue" stroke="midnightblue" points="80.5978,-129.948 78.258,-140.282 86.531,-133.663 80.5978,-129.948"/>
</g>
</g>
</svg>
