<?xml version="1.0" encoding="UTF-8" standalone="no"?>
<!DOCTYPE svg PUBLIC "-//W3C//DTD SVG 1.1//EN"
 "http://www.w3.org/Graphics/SVG/1.1/DTD/svg11.dtd">
<!-- Generated by graphviz version 2.26.3 (20100126.1600)
 -->
<!-- Title: Descriptive Statistics Pages: 1 -->
<svg width="296pt" height="110pt"
 viewBox="0.00 0.00 296.00 110.00" xmlns="http://www.w3.org/2000/svg" xmlns:xlink="http://www.w3.org/1999/xlink">
<g id="graph1" class="graph" transform="scale(1 1) rotate(0) translate(4 106)">
<title>Descriptive Statistics</title>
<polygon fill="white" stroke="white" points="-4,5 -4,-106 293,-106 293,5 -4,5"/>
<!-- Node0 -->
<g id="node1" class="node"><title>Node0</title>
<polygon fill="#bfbfbf" stroke="black" points="0,-40.5 0,-61.5 116,-61.5 116,-40.5 0,-40.5"/>
<text text-anchor="middle" x="58" y="-48.5" font-family="FreeSans.ttf" font-size="10.00">Descriptive Statistics</text>
</g>
<!-- Node1 -->
<g id="node2" class="node"><title>Node1</title>
<a xlink:href="group__grp__sketches.html" target="_top" xlink:title="Sketch&#45;based Estimators">
<polygon fill="white" stroke="black" points="152.5,-80.5 152.5,-101.5 287.5,-101.5 287.5,-80.5 152.5,-80.5"/>
<text text-anchor="middle" x="220" y="-88.5" font-family="FreeSans.ttf" font-size="10.00">Sketch&#45;based Estimators</text>
</a>
</g>
<!-- Node0&#45;&gt;Node1 -->
<g id="edge2" class="edge"><title>Node0&#45;&gt;Node1</title>
<path fill="none" stroke="midnightblue" d="M110.29,-63.911C132.001,-69.2718 156.873,-75.413 177.44,-80.4913"/>
<polygon fill="midnightblue" stroke="midnightblue" points="111.111,-60.5088 100.564,-61.5095 109.433,-67.3047 111.111,-60.5088"/>
</g>
<!-- Node3 -->
<g id="node3" class="node"><title>Node3</title>
<a xlink:href="group__grp__quantile.html" target="_top" xlink:title="Quantile">
<polygon fill="white" stroke="black" points="192,-40.5 192,-61.5 248,-61.5 248,-40.5 192,-40.5"/>
<text text-anchor="middle" x="220" y="-48.5" font-family="FreeSans.ttf" font-size="10.00">Quantile</text>
</a>
</g>
<!-- Node0&#45;&gt;Node3 -->
<g id="edge6" class="edge"><title>Node0&#45;&gt;Node3</title>
<path fill="none" stroke="midnightblue" d="M126.143,-51C149.195,-51 173.672,-51 191.848,-51"/>
<polygon fill="midnightblue" stroke="midnightblue" points="126.028,-47.5001 116.028,-51 126.028,-54.5001 126.028,-47.5001"/>
</g>
<!-- Node2 -->
<g id="node4" class="node"><title>Node2</title>
<a xlink:href="group__grp__profile.html" target="_top" xlink:title="Profile">
<polygon fill="white" stroke="black" points="197,-0.5 197,-21.5 243,-21.5 243,-0.5 197,-0.5"/>
<text text-anchor="middle" x="220" y="-8.5" font-family="FreeSans.ttf" font-size="10.00">Profile</text>
</a>
</g>
<!-- Node0&#45;&gt;Node2 -->
<g id="edge4" class="edge"><title>Node0&#45;&gt;Node2</title>
<path fill="none" stroke="midnightblue" d="M110.584,-38.0162C139.657,-30.8378 174.322,-22.2785 196.725,-16.747"/>
<polygon fill="midnightblue" stroke="midnightblue" points="109.433,-34.6953 100.564,-40.4905 111.111,-41.4912 109.433,-34.6953"/>
</g>
</g>
</svg>
