<?xml version="1.0" encoding="UTF-8" standalone="no"?>
<!DOCTYPE svg PUBLIC "-//W3C//DTD SVG 1.1//EN"
 "http://www.w3.org/Graphics/SVG/1.1/DTD/svg11.dtd">
<!-- Generated by graphviz version 2.26.3 (20100126.1600)
 -->
<!-- Title: structs Pages: 1 -->
<svg width="326pt" height="510pt"
 viewBox="0.00 0.00 326.00 510.00" xmlns="http://www.w3.org/2000/svg" xmlns:xlink="http://www.w3.org/1999/xlink">
<g id="graph1" class="graph" transform="scale(1 1) rotate(0) translate(4 506)">
<title>structs</title>
<polygon fill="white" stroke="white" points="-4,5 -4,-506 323,-506 323,5 -4,5"/>
<!-- Node12 -->
<g id="node1" class="node"><title>Node12</title>
<a xlink:href="group__grp__sample.html" target="_top" xlink:title="Random Sampling">
<polygon fill="white" stroke="black" points="194,-480.5 194,-501.5 298,-501.5 298,-480.5 194,-480.5"/>
<text text-anchor="middle" x="246" y="-488.5" font-family="FreeSans.ttf" font-size="10.00">Random Sampling</text>
</a>
</g>
<!-- Node0 -->
<g id="node2" class="node"><title>Node0</title>
<polygon fill="#bfbfbf" stroke="black" points="0,-240.5 0,-261.5 138,-261.5 138,-240.5 0,-240.5"/>
<text text-anchor="middle" x="69" y="-248.5" font-family="FreeSans.ttf" font-size="10.00">Early Stage Development</text>
</g>
<!-- Node0&#45;&gt;Node12 -->
<g id="edge24" class="edge"><title>Node0&#45;&gt;Node12</title>
<path fill="none" stroke="midnightblue" d="M72.8731,-271.609C82.1643,-315.209 109.883,-417.19 174,-471 179.764,-475.837 186.611,-479.509 193.756,-482.296"/>
<polygon fill="midnightblue" stroke="midnightblue" points="76.266,-270.728 70.8538,-261.62 69.4048,-272.116 76.266,-270.728"/>
</g>
<!-- Node3 -->
<g id="node3" class="node"><title>Node3</title>
<a xlink:href="group__grp__rf.html" target="_top" xlink:title="Random Forest">
<polygon fill="white" stroke="black" points="201.5,-440.5 201.5,-461.5 290.5,-461.5 290.5,-440.5 201.5,-440.5"/>
<text text-anchor="middle" x="246" y="-448.5" font-family="FreeSans.ttf" font-size="10.00">Random Forest</text>
</a>
</g>
<!-- Node0&#45;&gt;Node3 -->
<g id="edge6" class="edge"><title>Node0&#45;&gt;Node3</title>
<path fill="none" stroke="midnightblue" d="M75.2604,-271.681C87.7185,-309.265 119.239,-388.777 174,-431 181.911,-437.1 191.577,-441.339 201.226,-444.286"/>
<polygon fill="midnightblue" stroke="midnightblue" points="78.4987,-270.316 72.1244,-261.853 71.83,-272.444 78.4987,-270.316"/>
</g>
<!-- Node4 -->
<g id="node4" class="node"><title>Node4</title>
<a xlink:href="group__grp__kernmach.html" target="_top" xlink:title="Support Vector Machines">
<polygon fill="white" stroke="black" points="178.5,-400.5 178.5,-421.5 313.5,-421.5 313.5,-400.5 178.5,-400.5"/>
<text text-anchor="middle" x="246" y="-408.5" font-family="FreeSans.ttf" font-size="10.00">Support Vector Machines</text>
</a>
</g>
<!-- Node0&#45;&gt;Node4 -->
<g id="edge8" class="edge"><title>Node0&#45;&gt;Node4</title>
<path fill="none" stroke="midnightblue" d="M78.4721,-270.87C94.0545,-301.4 128.014,-359.599 174,-391 179.571,-394.804 185.85,-397.888 192.318,-400.388"/>
<polygon fill="midnightblue" stroke="midnightblue" points="81.4806,-269.059 73.9013,-261.656 75.2098,-272.17 81.4806,-269.059"/>
</g>
<!-- Node2 -->
<g id="node5" class="node"><title>Node2</title>
<a xlink:href="group__grp__dectree.html" target="_top" xlink:title="Decision Tree">
<polygon fill="white" stroke="black" points="205,-360.5 205,-381.5 287,-381.5 287,-360.5 205,-360.5"/>
<text text-anchor="middle" x="246" y="-368.5" font-family="FreeSans.ttf" font-size="10.00">Decision Tree</text>
</a>
</g>
<!-- Node0&#45;&gt;Node2 -->
<g id="edge4" class="edge"><title>Node0&#45;&gt;Node2</title>
<path fill="none" stroke="midnightblue" d="M83.3237,-269.325C101.877,-291.829 136.333,-329.634 174,-351 183.366,-356.313 194.227,-360.283 204.63,-363.222"/>
<polygon fill="midnightblue" stroke="midnightblue" points="86.0236,-267.097 77.0184,-261.515 80.5772,-271.495 86.0236,-267.097"/>
</g>
<!-- Node6 -->
<g id="node6" class="node"><title>Node6</title>
<a xlink:href="group__grp__svdmf.html" target="_top" xlink:title="SVD Matrix Factorisation">
<polygon fill="white" stroke="black" points="180.5,-320.5 180.5,-341.5 311.5,-341.5 311.5,-320.5 180.5,-320.5"/>
<text text-anchor="middle" x="246" y="-328.5" font-family="FreeSans.ttf" font-size="10.00">SVD Matrix Factorisation</text>
</a>
</g>
<!-- Node0&#45;&gt;Node6 -->
<g id="edge12" class="edge"><title>Node0&#45;&gt;Node6</title>
<path fill="none" stroke="midnightblue" d="M93.2187,-267.153C113.951,-280.406 144.966,-298.894 174,-311 182.621,-314.595 192.088,-317.75 201.244,-320.427"/>
<polygon fill="midnightblue" stroke="midnightblue" points="95.0253,-264.154 84.7302,-261.652 91.218,-270.028 95.0253,-264.154"/>
</g>
<!-- Node7 -->
<g id="node7" class="node"><title>Node7</title>
<a xlink:href="group__grp__sketches.html" target="_top" xlink:title="Sketch&#45;based Estimators">
<polygon fill="white" stroke="black" points="178.5,-280.5 178.5,-301.5 313.5,-301.5 313.5,-280.5 178.5,-280.5"/>
<text text-anchor="middle" x="246" y="-288.5" font-family="FreeSans.ttf" font-size="10.00">Sketch&#45;based Estimators</text>
</a>
</g>
<!-- Node0&#45;&gt;Node7 -->
<g id="edge14" class="edge"><title>Node0&#45;&gt;Node7</title>
<path fill="none" stroke="midnightblue" d="M125.491,-263.766C149.363,-269.161 176.825,-275.367 199.499,-280.491"/>
<polygon fill="midnightblue" stroke="midnightblue" points="126.03,-260.3 115.505,-261.51 124.487,-267.128 126.03,-260.3"/>
</g>
<!-- Node1 -->
<g id="node8" class="node"><title>Node1</title>
<a xlink:href="group__grp__bayes.html" target="_top" xlink:title="Naive Bayes Classification">
<polygon fill="white" stroke="black" points="174.5,-240.5 174.5,-261.5 317.5,-261.5 317.5,-240.5 174.5,-240.5"/>
<text text-anchor="middle" x="246" y="-248.5" font-family="FreeSans.ttf" font-size="10.00">Naive Bayes Classification</text>
</a>
</g>
<!-- Node0&#45;&gt;Node1 -->
<g id="edge2" class="edge"><title>Node0&#45;&gt;Node1</title>
<path fill="none" stroke="midnightblue" d="M148.269,-251C156.915,-251 165.68,-251 174.23,-251"/>
<polygon fill="midnightblue" stroke="midnightblue" points="148.193,-247.5 138.193,-251 148.193,-254.5 148.193,-247.5"/>
</g>
<!-- Node9 -->
<g id="node9" class="node"><title>Node9</title>
<a xlink:href="group__grp__quantile.html" target="_top" xlink:title="Quantile">
<polygon fill="white" stroke="black" points="218,-200.5 218,-221.5 274,-221.5 274,-200.5 218,-200.5"/>
<text text-anchor="middle" x="246" y="-208.5" font-family="FreeSans.ttf" font-size="10.00">Quantile</text>
</a>
</g>
<!-- Node0&#45;&gt;Node9 -->
<g id="edge18" class="edge"><title>Node0&#45;&gt;Node9</title>
<path fill="none" stroke="midnightblue" d="M125.275,-238.282C156.092,-231.318 192.946,-222.99 217.761,-217.382"/>
<polygon fill="midnightblue" stroke="midnightblue" points="124.487,-234.872 115.505,-240.49 126.03,-241.7 124.487,-234.872"/>
</g>
<!-- Node8 -->
<g id="node10" class="node"><title>Node8</title>
<a xlink:href="group__grp__profile.html" target="_top" xlink:title="Profile">
<polygon fill="white" stroke="black" points="223,-160.5 223,-181.5 269,-181.5 269,-160.5 223,-160.5"/>
<text text-anchor="middle" x="246" y="-168.5" font-family="FreeSans.ttf" font-size="10.00">Profile</text>
</a>
</g>
<!-- Node0&#45;&gt;Node8 -->
<g id="edge16" class="edge"><title>Node0&#45;&gt;Node8</title>
<path fill="none" stroke="midnightblue" d="M93.2187,-234.847C113.951,-221.594 144.966,-203.106 174,-191 189.806,-184.41 208.454,-179.298 222.812,-175.893"/>
<polygon fill="midnightblue" stroke="midnightblue" points="91.218,-231.972 84.7302,-240.348 95.0253,-237.846 91.218,-231.972"/>
</g>
<!-- Node5 -->
<g id="node11" class="node"><title>Node5</title>
<a xlink:href="group__grp__crf.html" target="_top" xlink:title="Conditional Random Field">
<polygon fill="white" stroke="black" points="177,-120.5 177,-141.5 315,-141.5 315,-120.5 177,-120.5"/>
<text text-anchor="middle" x="246" y="-128.5" font-family="FreeSans.ttf" font-size="10.00">Conditional Random Field</text>
</a>
</g>
<!-- Node0&#45;&gt;Node5 -->
<g id="edge10" class="edge"><title>Node0&#45;&gt;Node5</title>
<path fill="none" stroke="midnightblue" d="M83.3237,-232.675C101.877,-210.171 136.333,-172.366 174,-151 180.658,-147.223 188.071,-144.125 195.538,-141.594"/>
<polygon fill="midnightblue" stroke="midnightblue" points="80.5772,-230.505 77.0184,-240.485 86.0236,-234.903 80.5772,-230.505"/>
</g>
<!-- Node11 -->
<g id="node12" class="node"><title>Node11</title>
<a xlink:href="group__grp__linalg.html" target="_top" xlink:title="In linear algebra, the singular value decomposition (SVD) is a factorization of a real or complex mat...">
<polygon fill="white" stroke="black" points="175,-80.5 175,-101.5 317,-101.5 317,-80.5 175,-80.5"/>
<text text-anchor="middle" x="246" y="-88.5" font-family="FreeSans.ttf" font-size="10.00">Linear&#45;Algebra Operations</text>
</a>
</g>
<!-- Node0&#45;&gt;Node11 -->
<g id="edge22" class="edge"><title>Node0&#45;&gt;Node11</title>
<path fill="none" stroke="midnightblue" d="M78.4721,-231.13C94.0545,-200.6 128.014,-142.401 174,-111 179.571,-107.196 185.85,-104.112 192.318,-101.612"/>
<polygon fill="midnightblue" stroke="midnightblue" points="75.2098,-229.83 73.9013,-240.344 81.4806,-232.941 75.2098,-229.83"/>
</g>
<!-- Node10 -->
<g id="node13" class="node"><title>Node10</title>
<a xlink:href="group__grp__cg.html" target="_top" xlink:title="Conjugate Gradient">
<polygon fill="white" stroke="black" points="191.5,-40.5 191.5,-61.5 300.5,-61.5 300.5,-40.5 191.5,-40.5"/>
<text text-anchor="middle" x="246" y="-48.5" font-family="FreeSans.ttf" font-size="10.00">Conjugate Gradient</text>
</a>
</g>
<!-- Node0&#45;&gt;Node10 -->
<g id="edge20" class="edge"><title>Node0&#45;&gt;Node10</title>
<path fill="none" stroke="midnightblue" d="M75.2604,-230.319C87.7185,-192.735 119.239,-113.223 174,-71 179.137,-67.0392 185.014,-63.8626 191.146,-61.315"/>
<polygon fill="midnightblue" stroke="midnightblue" points="71.83,-229.556 72.1244,-240.147 78.4987,-231.684 71.83,-229.556"/>
</g>
<!-- Node13 -->
<g id="node14" class="node"><title>Node13</title>
<a xlink:href="group__grp__utilities.html" target="_top" xlink:title="DB Administrator Utilities">
<polygon fill="white" stroke="black" points="179.5,-0.5 179.5,-21.5 312.5,-21.5 312.5,-0.5 179.5,-0.5"/>
<text text-anchor="middle" x="246" y="-8.5" font-family="FreeSans.ttf" font-size="10.00">DB Administrator Utilities</text>
</a>
</g>
<!-- Node0&#45;&gt;Node13 -->
<g id="edge26" class="edge"><title>Node0&#45;&gt;Node13</title>
<path fill="none" stroke="midnightblue" d="M72.8731,-230.391C82.1643,-186.791 109.883,-84.8103 174,-31 178.571,-27.1636 183.824,-24.0602 189.367,-21.5502"/>
<polygon fill="midnightblue" stroke="midnightblue" points="69.4048,-229.884 70.8538,-240.38 76.266,-231.272 69.4048,-229.884"/>
</g>
</g>
</svg>
