<?xml version="1.0" encoding="UTF-8" standalone="no"?>
<!DOCTYPE svg PUBLIC "-//W3C//DTD SVG 1.1//EN"
 "http://www.w3.org/Graphics/SVG/1.1/DTD/svg11.dtd">
<!-- Generated by graphviz version 2.26.3 (20100126.1600)
 -->
<!-- Title: Graph Legend Pages: 1 -->
<svg width="508pt" height="184pt"
 viewBox="0.00 0.00 508.00 184.00" xmlns="http://www.w3.org/2000/svg" xmlns:xlink="http://www.w3.org/1999/xlink">
<g id="graph1" class="graph" transform="scale(1 1) rotate(0) translate(4 180)">
<title>Graph Legend</title>
<polygon fill="white" stroke="white" points="-4,5 -4,-180 505,-180 505,5 -4,5"/>
<!-- Node9 -->
<g id="node1" class="node"><title>Node9</title>
<polygon fill="#bfbfbf" stroke="black" points="291,-24 237,-24 237,-1.06581e-14 291,-3.55271e-15 291,-24"/>
<text text-anchor="middle" x="264" y="-11" font-family="Helvetica,sans-Serif" font-size="10.00">Inherited</text>
</g>
<!-- Node10 -->
<g id="node2" class="node"><title>Node10</title>
<a xlink:href="$classPublicBase.html" xlink:title="PublicBase">
<polygon fill="none" stroke="black" points="66,-100 2.84217e-14,-100 0,-76 66,-76 66,-100"/>
<text text-anchor="middle" x="33" y="-87" font-family="Helvetica,sans-Serif" font-size="10.00">PublicBase</text>
</a>
</g>
<!-- Node10&#45;&gt;Node9 -->
<g id="edge2" class="edge"><title>Node10&#45;&gt;Node9</title>
<path fill="none" stroke="midnightblue" d="M75.6999,-73.9516C122.742,-58.4745 196.985,-34.0481 236.737,-20.9697"/>
<polygon fill="midnightblue" stroke="midnightblue" points="74.5019,-70.6611 66.0967,-77.1111 76.6896,-77.3104 74.5019,-70.6611"/>
</g>
<!-- Node11 -->
<g id="node4" class="node"><title>Node11</title>
<a xlink:href="$classTruncated.html" xlink:title="Truncated">
<polygon fill="none" stroke="red" points="63,-176 3,-176 3,-152 63,-152 63,-176"/>
<text text-anchor="middle" x="33" y="-163" font-family="Helvetica,sans-Serif" font-size="10.00">Truncated</text>
</a>
</g>
<!-- Node11&#45;&gt;Node10 -->
<g id="edge4" class="edge"><title>Node11&#45;&gt;Node10</title>
<path fill="none" stroke="midnightblue" d="M33,-141.437C33,-128.024 33,-111.52 33,-100.433"/>
<polygon fill="midnightblue" stroke="midnightblue" points="29.5001,-141.789 33,-151.789 36.5001,-141.789 29.5001,-141.789"/>
</g>
<!-- Node13 -->
<g id="node6" class="node"><title>Node13</title>
<a xlink:href="$classProtectedBase.html" xlink:title="ProtectedBase">
<polygon fill="none" stroke="black" points="164,-100 84,-100 84,-76 164,-76 164,-100"/>
<text text-anchor="middle" x="124" y="-87" font-family="Helvetica,sans-Serif" font-size="10.00">ProtectedBase</text>
</a>
</g>
<!-- Node13&#45;&gt;Node9 -->
<g id="edge6" class="edge"><title>Node13&#45;&gt;Node9</title>
<path fill="none" stroke="darkgreen" d="M155.298,-71.0095C181.449,-56.8135 218.109,-36.9123 241.457,-24.2377"/>
<polygon fill="darkgreen" stroke="darkgreen" points="153.302,-68.1106 146.183,-75.9576 156.642,-74.2626 153.302,-68.1106"/>
</g>
<!-- Node14 -->
<g id="node8" class="node"><title>Node14</title>
<a xlink:href="$classPrivateBase.html" xlink:title="PrivateBase">
<polygon fill="none" stroke="black" points="252,-100 182,-100 182,-76 252,-76 252,-100"/>
<text text-anchor="middle" x="217" y="-87" font-family="Helvetica,sans-Serif" font-size="10.00">PrivateBase</text>
</a>
</g>
<!-- Node14&#45;&gt;Node9 -->
<g id="edge8" class="edge"><title>Node14&#45;&gt;Node9</title>
<path fill="none" stroke="#8b1a1a" d="M229.968,-67.0307C238.426,-53.353 249.18,-35.9638 256.311,-24.4329"/>
<polygon fill="#8b1a1a" stroke="#8b1a1a" points="226.834,-65.4433 224.551,-75.7893 232.788,-69.1251 226.834,-65.4433"/>
</g>
<!-- Node15 -->
<g id="node10" class="node"><title>Node15</title>
<polygon fill="none" stroke="#bfbfbf" points="352,-100 270,-100 270,-76 352,-76 352,-100"/>
<text text-anchor="middle" x="311" y="-87" font-family="Helvetica,sans-Serif" font-size="10.00">Undocumented</text>
</g>
<!-- Node15&#45;&gt;Node9 -->
<g id="edge10" class="edge"><title>Node15&#45;&gt;Node9</title>
<path fill="none" stroke="midnightblue" d="M298.032,-67.0307C289.574,-53.353 278.82,-35.9638 271.689,-24.4329"/>
<polygon fill="midnightblue" stroke="midnightblue" points="295.212,-69.1251 303.449,-75.7893 301.166,-65.4433 295.212,-69.1251"/>
</g>
<!-- Node16 -->
<g id="node12" class="node"><title>Node16</title>
<a xlink:href="$classTempl.html" xlink:title="Templ&lt; int &gt;">
<polygon fill="none" stroke="black" points="442,-100 370,-100 370,-76 442,-76 442,-100"/>
<text text-anchor="middle" x="406" y="-87" font-family="Helvetica,sans-Serif" font-size="10.00">Templ&lt; int &gt;</text>
</a>
</g>
<!-- Node16&#45;&gt;Node9 -->
<g id="edge12" class="edge"><title>Node16&#45;&gt;Node9</title>
<path fill="none" stroke="midnightblue" d="M374.603,-71.196C348.057,-56.9882 310.651,-36.9679 286.865,-24.2377"/>
<polygon fill="midnightblue" stroke="midnightblue" points="373.031,-74.3246 383.5,-75.9576 376.335,-68.1529 373.031,-74.3246"/>
</g>
<!-- Node17 -->
<g id="node14" class="node"><title>Node17</title>
<a xlink:href="$classTempl.html" xlink:title="Templ&lt; T &gt;">
<polygon fill="none" stroke="black" points="440,-176 372,-176 372,-152 440,-152 440,-176"/>
<text text-anchor="middle" x="406" y="-163" font-family="Helvetica,sans-Serif" font-size="10.00">Templ&lt; T &gt;</text>
</a>
</g>
<!-- Node17&#45;&gt;Node16 -->
<g id="edge14" class="edge"><title>Node17&#45;&gt;Node16</title>
<path fill="none" stroke="orange" stroke-dasharray="5,2" d="M406,-141.437C406,-128.024 406,-111.52 406,-100.433"/>
<polygon fill="orange" stroke="orange" points="402.5,-141.789 406,-151.789 409.5,-141.789 402.5,-141.789"/>
<text text-anchor="middle" x="420.5" y="-125" font-family="Helvetica,sans-Serif" font-size="10.00">&lt; int &gt;</text>
</g>
<!-- Node18 -->
<g id="node16" class="node"><title>Node18</title>
<a xlink:href="$classUsed.html" xlink:title="Used">
<polygon fill="none" stroke="black" points="500,-100 460,-100 460,-76 500,-76 500,-100"/>
<text text-anchor="middle" x="480" y="-87" font-family="Helvetica,sans-Serif" font-size="10.00">Used</text>
</a>
</g>
<!-- Node18&#45;&gt;Node9 -->
<g id="edge16" class="edge"><title>Node18&#45;&gt;Node9</title>
<path fill="none" stroke="#9a32cd" stroke-dasharray="5,2" d="M450.234,-75.8433C388.193,-52.585 325.898,-31.9642 291.131,-20.6946"/>
<polygon fill="#9a32cd" stroke="#9a32cd" points="449.191,-79.1905 459.783,-79.4451 451.662,-72.641 449.191,-79.1905"/>
<text text-anchor="middle" x="429.5" y="-49" font-family="Helvetica,sans-Serif" font-size="10.00">m_usedClass</text>
</g>
</g>
</svg>
