<?xml version="1.0" encoding="UTF-8" standalone="no"?>
<!DOCTYPE svg PUBLIC "-//W3C//DTD SVG 1.1//EN"
 "http://www.w3.org/Graphics/SVG/1.1/DTD/svg11.dtd">
<!-- Generated by graphviz version 2.26.3 (20100126.1600)
 -->
<!-- Title: structs Pages: 1 -->
<svg width="446pt" height="190pt"
 viewBox="0.00 0.00 446.00 190.00" xmlns="http://www.w3.org/2000/svg" xmlns:xlink="http://www.w3.org/1999/xlink">
<g id="graph1" class="graph" transform="scale(1 1) rotate(0) translate(4 186)">
<title>structs</title>
<polygon fill="white" stroke="white" points="-4,5 -4,-186 443,-186 443,5 -4,5"/>
<!-- Node2 -->
<g id="node1" class="node"><title>Node2</title>
<a xlink:href="group__grp__assoc__rules.html" target="_top" xlink:title="Association Rules">
<polygon fill="white" stroke="black" points="309.5,-160.5 309.5,-181.5 410.5,-181.5 410.5,-160.5 309.5,-160.5"/>
<text text-anchor="middle" x="360" y="-168.5" font-family="FreeSans.ttf" font-size="10.00">Association Rules</text>
</a>
</g>
<!-- Node1 -->
<g id="node2" class="node"><title>Node1</title>
<a xlink:href="group__grp__modeling.html" target="_top" xlink:title="Data Modeling">
<polygon fill="white" stroke="black" points="0,-80.5 0,-101.5 84,-101.5 84,-80.5 0,-80.5"/>
<text text-anchor="middle" x="42" y="-88.5" font-family="FreeSans.ttf" font-size="10.00">Data Modeling</text>
</a>
</g>
<!-- Node0 -->
<g id="node3" class="node"><title>Node0</title>
<polygon fill="#bfbfbf" stroke="black" points="120,-80.5 120,-101.5 246,-101.5 246,-80.5 120,-80.5"/>
<text text-anchor="middle" x="183" y="-88.5" font-family="FreeSans.ttf" font-size="10.00">Unsupervised Learning</text>
</g>
<!-- Node1&#45;&gt;Node0 -->
<g id="edge2" class="edge"><title>Node1&#45;&gt;Node0</title>
<path fill="none" stroke="midnightblue" d="M94.5375,-91C102.794,-91 111.403,-91 119.869,-91"/>
<polygon fill="midnightblue" stroke="midnightblue" points="94.3047,-87.5001 84.3046,-91 94.3046,-94.5001 94.3047,-87.5001"/>
</g>
<!-- Node0&#45;&gt;Node2 -->
<g id="edge4" class="edge"><title>Node0&#45;&gt;Node2</title>
<path fill="none" stroke="midnightblue" d="M205.561,-107.327C224.987,-120.721 254.205,-139.316 282,-151 290.763,-154.684 300.375,-157.822 309.765,-160.444"/>
<polygon fill="midnightblue" stroke="midnightblue" points="207.562,-104.455 197.364,-101.583 203.545,-110.188 207.562,-104.455"/>
</g>
<!-- Node5 -->
<g id="node4" class="node"><title>Node5</title>
<a xlink:href="group__grp__svdmf.html" target="_top" xlink:title="SVD Matrix Factorisation">
<polygon fill="white" stroke="black" points="294.5,-120.5 294.5,-141.5 425.5,-141.5 425.5,-120.5 294.5,-120.5"/>
<text text-anchor="middle" x="360" y="-128.5" font-family="FreeSans.ttf" font-size="10.00">SVD Matrix Factorisation</text>
</a>
</g>
<!-- Node0&#45;&gt;Node5 -->
<g id="edge10" class="edge"><title>Node0&#45;&gt;Node5</title>
<path fill="none" stroke="midnightblue" d="M239.491,-103.766C263.363,-109.161 290.825,-115.367 313.499,-120.491"/>
<polygon fill="midnightblue" stroke="midnightblue" points="240.03,-100.3 229.505,-101.51 238.487,-107.128 240.03,-100.3"/>
</g>
<!-- Node6 -->
<g id="node5" class="node"><title>Node6</title>
<a xlink:href="group__grp__lda.html" target="_top" xlink:title="Latent Dirichlet Allocation">
<polygon fill="white" stroke="black" points="291.5,-80.5 291.5,-101.5 428.5,-101.5 428.5,-80.5 291.5,-80.5"/>
<text text-anchor="middle" x="360" y="-88.5" font-family="FreeSans.ttf" font-size="10.00">Latent Dirichlet Allocation</text>
</a>
</g>
<!-- Node0&#45;&gt;Node6 -->
<g id="edge12" class="edge"><title>Node0&#45;&gt;Node6</title>
<path fill="none" stroke="midnightblue" d="M256.444,-91C267.999,-91 279.907,-91 291.348,-91"/>
<polygon fill="midnightblue" stroke="midnightblue" points="256.401,-87.5001 246.401,-91 256.401,-94.5001 256.401,-87.5001"/>
</g>
<!-- Node3 -->
<g id="node6" class="node"><title>Node3</title>
<a xlink:href="group__grp__kmeans.html" target="_top" xlink:title="k&#45;Means Clustering">
<polygon fill="white" stroke="black" points="306.5,-40.5 306.5,-61.5 413.5,-61.5 413.5,-40.5 306.5,-40.5"/>
<text text-anchor="middle" x="360" y="-48.5" font-family="FreeSans.ttf" font-size="10.00">k&#45;Means Clustering</text>
</a>
</g>
<!-- Node0&#45;&gt;Node3 -->
<g id="edge6" class="edge"><title>Node0&#45;&gt;Node3</title>
<path fill="none" stroke="midnightblue" d="M239.491,-78.2337C263.363,-72.839 290.825,-66.6328 313.499,-61.5087"/>
<polygon fill="midnightblue" stroke="midnightblue" points="238.487,-74.8722 229.505,-80.4905 240.03,-81.7 238.487,-74.8722"/>
</g>
<!-- Node4 -->
<g id="node7" class="node"><title>Node4</title>
<a xlink:href="group__grp__lmf.html" target="_top" xlink:title="Low&#45;rank Matrix Factorization">
<polygon fill="white" stroke="black" points="282,-0.5 282,-21.5 438,-21.5 438,-0.5 282,-0.5"/>
<text text-anchor="middle" x="360" y="-8.5" font-family="FreeSans.ttf" font-size="10.00">Low&#45;rank Matrix Factorization</text>
</a>
</g>
<!-- Node0&#45;&gt;Node4 -->
<g id="edge8" class="edge"><title>Node0&#45;&gt;Node4</title>
<path fill="none" stroke="midnightblue" d="M205.561,-74.6732C224.987,-61.2795 254.205,-42.684 282,-31 290.763,-27.3162 300.375,-24.1783 309.765,-21.5562"/>
<polygon fill="midnightblue" stroke="midnightblue" points="203.545,-71.8121 197.364,-80.4174 207.562,-77.5445 203.545,-71.8121"/>
</g>
</g>
</svg>
