<?xml version="1.0" encoding="UTF-8" standalone="no"?>
<!DOCTYPE svg PUBLIC "-//W3C//DTD SVG 1.1//EN"
 "http://www.w3.org/Graphics/SVG/1.1/DTD/svg11.dtd">
<!-- Generated by graphviz version 2.26.3 (20100126.1600)
 -->
<!-- Title: structs Pages: 1 -->
<svg width="296pt" height="150pt"
 viewBox="0.00 0.00 296.00 150.00" xmlns="http://www.w3.org/2000/svg" xmlns:xlink="http://www.w3.org/1999/xlink">
<g id="graph1" class="graph" transform="scale(1 1) rotate(0) translate(4 146)">
<title>structs</title>
<polygon fill="white" stroke="white" points="-4,5 -4,-146 293,-146 293,5 -4,5"/>
<!-- Node0 -->
<g id="node1" class="node"><title>Node0</title>
<polygon fill="#bfbfbf" stroke="black" points="0,-60.5 0,-81.5 116,-81.5 116,-60.5 0,-60.5"/>
<text text-anchor="middle" x="58" y="-68.5" font-family="FreeSans.ttf" font-size="10.00">Descriptive Statistics</text>
</g>
<!-- Node1 -->
<g id="node2" class="node"><title>Node1</title>
<a xlink:href="group__grp__sketches.html" target="_top" xlink:title="Sketch&#45;based Estimators">
<polygon fill="white" stroke="black" points="152.5,-120.5 152.5,-141.5 287.5,-141.5 287.5,-120.5 152.5,-120.5"/>
<text text-anchor="middle" x="220" y="-128.5" font-family="FreeSans.ttf" font-size="10.00">Sketch&#45;based Estimators</text>
</a>
</g>
<!-- Node0&#45;&gt;Node1 -->
<g id="edge2" class="edge"><title>Node0&#45;&gt;Node1</title>
<path fill="none" stroke="midnightblue" d="M90.3118,-85.8504C108.276,-93.8267 131.152,-103.527 152,-111 161.383,-114.363 171.636,-117.601 181.269,-120.455"/>
<polygon fill="midnightblue" stroke="midnightblue" points="91.4377,-82.5195 80.8809,-81.6215 88.5735,-88.9068 91.4377,-82.5195"/>
</g>
<!-- Node4 -->
<g id="node3" class="node"><title>Node4</title>
<a xlink:href="group__grp__quantile.html" target="_top" xlink:title="Quantile">
<polygon fill="white" stroke="black" points="192,-80.5 192,-101.5 248,-101.5 248,-80.5 192,-80.5"/>
<text text-anchor="middle" x="220" y="-88.5" font-family="FreeSans.ttf" font-size="10.00">Quantile</text>
</a>
</g>
<!-- Node0&#45;&gt;Node4 -->
<g id="edge8" class="edge"><title>Node0&#45;&gt;Node4</title>
<path fill="none" stroke="midnightblue" d="M126.143,-79.4127C149.195,-82.2586 173.672,-85.2805 191.848,-87.5245"/>
<polygon fill="midnightblue" stroke="midnightblue" points="126.382,-75.9157 116.028,-78.164 125.524,-82.8629 126.382,-75.9157"/>
</g>
<!-- Node3 -->
<g id="node4" class="node"><title>Node3</title>
<a xlink:href="group__grp__summary.html" target="_top" xlink:title="Summary">
<polygon fill="white" stroke="black" points="188,-40.5 188,-61.5 252,-61.5 252,-40.5 188,-40.5"/>
<text text-anchor="middle" x="220" y="-48.5" font-family="FreeSans.ttf" font-size="10.00">Summary</text>
</a>
</g>
<!-- Node0&#45;&gt;Node3 -->
<g id="edge6" class="edge"><title>Node0&#45;&gt;Node3</title>
<path fill="none" stroke="midnightblue" d="M126.075,-62.5956C147.47,-59.9544 170.099,-57.1606 187.784,-54.9773"/>
<polygon fill="midnightblue" stroke="midnightblue" points="125.524,-59.1371 116.028,-63.836 126.382,-66.0843 125.524,-59.1371"/>
</g>
<!-- Node2 -->
<g id="node5" class="node"><title>Node2</title>
<a xlink:href="group__grp__profile.html" target="_top" xlink:title="Profile">
<polygon fill="white" stroke="black" points="197,-0.5 197,-21.5 243,-21.5 243,-0.5 197,-0.5"/>
<text text-anchor="middle" x="220" y="-8.5" font-family="FreeSans.ttf" font-size="10.00">Profile</text>
</a>
</g>
<!-- Node0&#45;&gt;Node2 -->
<g id="edge4" class="edge"><title>Node0&#45;&gt;Node2</title>
<path fill="none" stroke="midnightblue" d="M90.3118,-56.1496C108.276,-48.1733 131.152,-38.4732 152,-31 166.712,-25.7266 183.562,-20.7632 196.808,-17.1001"/>
<polygon fill="midnightblue" stroke="midnightblue" points="88.5735,-53.0932 80.8809,-60.3785 91.4377,-59.4805 88.5735,-53.0932"/>
</g>
</g>
</svg>
